<?xml version="1.0" encoding="UTF-8" standalone="no"?>
<!DOCTYPE svg PUBLIC "-//W3C//DTD SVG 1.1//EN" "http://www.w3.org/Graphics/SVG/1.1/DTD/svg11.dtd">
<svg width="100%" height="100%" viewBox="0 0 4800 6600" version="1.1" xmlns="http://www.w3.org/2000/svg" xmlns:xlink="http://www.w3.org/1999/xlink" xml:space="preserve" xmlns:serif="http://www.serif.com/" style="fill-rule:evenodd;clip-rule:evenodd;stroke-linejoin:round;stroke-miterlimit:2;">
    <g transform="matrix(2.94327,0,0,2.94327,-1185.69,-5702.12)">
        <path d="M621.152,2945.67C619.318,2945.67 617.71,2946.12 616.327,2947.02C614.943,2947.92 613.793,2949.15 612.877,2950.7C611.96,2952.25 611.277,2954.07 610.827,2956.15C610.377,2958.23 610.152,2960.46 610.152,2962.82C610.152,2965.22 610.377,2967.45 610.827,2969.5C611.277,2971.55 611.96,2973.33 612.877,2974.85C613.793,2976.37 614.943,2977.55 616.327,2978.4C617.71,2979.25 619.335,2979.67 621.202,2979.67C623.068,2979.67 624.693,2979.25 626.077,2978.4C627.46,2977.55 628.61,2976.37 629.527,2974.85C630.443,2973.33 631.127,2971.55 631.577,2969.5C632.027,2967.45 632.252,2965.22 632.252,2962.82C632.252,2960.46 632.027,2958.23 631.577,2956.15C631.127,2954.07 630.443,2952.25 629.527,2950.7C628.61,2949.15 627.468,2947.92 626.102,2947.02C624.735,2946.12 623.118,2945.67 621.252,2945.67L621.152,2945.67Z" style="fill:none;fill-rule:nonzero;stroke:rgb(35,31,32);stroke-width:0.14px;"/>
    </g>
    <g transform="matrix(2.94327,0,0,2.94327,-1185.69,-5702.12)">
        <path d="M650.152,2979.67L650.152,2946.17L649.952,2946.17L639.252,2953.72" style="fill:none;fill-rule:nonzero;stroke:rgb(35,31,32);stroke-width:0.14px;"/>
    </g>
    <g transform="matrix(2.94327,0,0,2.94327,-1185.69,-5702.12)">
        <path d="M681.402,2979.67L661.402,2979.67L661.402,2979.47L672.552,2967.22C673.518,2966.16 674.452,2965.11 675.352,2964.07C676.252,2963.04 677.06,2961.98 677.777,2960.9C678.493,2959.82 679.068,2958.68 679.502,2957.5C679.935,2956.32 680.152,2955.06 680.152,2953.72C680.152,2952.36 679.927,2951.17 679.477,2950.17C679.027,2949.17 678.418,2948.34 677.652,2947.67C676.885,2947.01 676.002,2946.51 675.002,2946.17C674.002,2945.84 672.952,2945.67 671.852,2945.67C669.652,2945.67 667.702,2946.28 666.002,2947.5C664.302,2948.72 663.085,2950.41 662.352,2952.57" style="fill:none;fill-rule:nonzero;stroke:rgb(35,31,32);stroke-width:0.14px;"/>
    </g>
    <g transform="matrix(2.94327,0,0,2.94327,-1185.69,-5702.12)">
        <path d="M689.152,2973.52C689.618,2975.39 690.693,2976.89 692.377,2978.02C694.06,2979.16 696.118,2979.72 698.552,2979.72C700.018,2979.72 701.352,2979.51 702.552,2979.07C703.752,2978.64 704.768,2978.03 705.602,2977.25C706.435,2976.47 707.077,2975.53 707.527,2974.45C707.977,2973.37 708.202,2972.19 708.202,2970.92C708.202,2969.82 708.018,2968.72 707.652,2967.62C707.285,2966.52 706.685,2965.53 705.852,2964.65C705.018,2963.77 703.952,2963.06 702.652,2962.52C701.352,2961.99 699.752,2961.72 697.852,2961.72L696.302,2961.72M697.852,2961.72C699.518,2961.72 700.968,2961.5 702.202,2961.05C703.435,2960.6 704.46,2959.99 705.277,2959.22C706.093,2958.46 706.702,2957.57 707.102,2956.57C707.502,2955.57 707.702,2954.51 707.702,2953.37C707.702,2952.34 707.527,2951.36 707.177,2950.42C706.827,2949.49 706.302,2948.67 705.602,2947.97C704.902,2947.27 704.01,2946.72 702.927,2946.3C701.843,2945.88 700.552,2945.67 699.052,2945.67C697.852,2945.67 696.768,2945.82 695.802,2946.1C694.835,2946.38 693.977,2946.76 693.227,2947.22C692.477,2947.69 691.827,2948.22 691.277,2948.82C690.727,2949.42 690.268,2950.06 689.902,2950.72" style="fill:none;fill-rule:nonzero;stroke:rgb(35,31,32);stroke-width:0.14px;"/>
    </g>
    <g transform="matrix(2.94327,0,0,2.94327,-1185.69,-5702.12)">
        <path d="M732.952,2979.67L732.952,2946.17L732.452,2946.17L716.952,2971.47L716.952,2971.67L739.152,2971.67" style="fill:none;fill-rule:nonzero;stroke:rgb(35,31,32);stroke-width:0.14px;"/>
    </g>
    <g transform="matrix(2.94327,0,0,2.94327,-1185.69,-5702.12)">
        <path d="M746.902,2972.77C747.702,2975.01 748.885,2976.72 750.452,2977.9C752.018,2979.08 753.852,2979.67 755.952,2979.67C757.318,2979.67 758.585,2979.42 759.752,2978.92C760.918,2978.42 761.927,2977.72 762.777,2976.8C763.627,2975.88 764.293,2974.78 764.777,2973.5C765.26,2972.22 765.502,2970.81 765.502,2969.27C765.502,2967.81 765.277,2966.44 764.827,2965.17C764.377,2963.91 763.735,2962.82 762.902,2961.9C762.068,2960.98 761.06,2960.26 759.877,2959.72C758.693,2959.19 757.352,2958.92 755.852,2958.92C754.685,2958.92 753.435,2959.08 752.102,2959.4C750.768,2959.72 749.568,2960.21 748.502,2960.87L749.002,2946.17L764.602,2946.17" style="fill:none;fill-rule:nonzero;stroke:rgb(35,31,32);stroke-width:0.14px;"/>
    </g>
    <g transform="matrix(2.94327,0,0,2.94327,-1185.69,-5702.12)">
        <path d="M788.052,2945.67L780.102,2956.27C779.068,2957.64 778.202,2958.91 777.502,2960.07C776.802,2961.24 776.235,2962.35 775.802,2963.4C775.368,2964.45 775.052,2965.47 774.852,2966.45C774.652,2967.43 774.552,2968.42 774.552,2969.42C774.552,2970.66 774.735,2971.89 775.102,2973.12C775.468,2974.36 776.052,2975.46 776.852,2976.42C777.652,2977.39 778.693,2978.17 779.977,2978.77C781.26,2979.37 782.818,2979.67 784.652,2979.67C786.252,2979.67 787.677,2979.42 788.927,2978.92C790.177,2978.42 791.227,2977.73 792.077,2976.85C792.927,2975.97 793.568,2974.92 794.002,2973.72C794.435,2972.52 794.652,2971.21 794.652,2969.77C794.652,2968.21 794.385,2966.79 793.852,2965.52C793.318,2964.26 792.61,2963.19 791.727,2962.32C790.843,2961.46 789.818,2960.79 788.652,2960.32C787.485,2959.86 786.252,2959.62 784.952,2959.62C783.218,2959.62 781.468,2960.04 779.702,2960.87C777.935,2961.71 776.468,2963.02 775.302,2964.82" style="fill:none;fill-rule:nonzero;stroke:rgb(35,31,32);stroke-width:0.14px;"/>
    </g>
    <g transform="matrix(2.94327,0,0,2.94327,-1185.69,-5702.12)">
        <path d="M804.702,2979.67L820.652,2946.37L820.652,2946.17L800.402,2946.17" style="fill:none;fill-rule:nonzero;stroke:rgb(35,31,32);stroke-width:0.14px;"/>
    </g>
    <g transform="matrix(2.94327,0,0,2.94327,-1185.69,-5702.12)">
        <path d="M836.052,2945.67C837.285,2945.67 838.418,2945.86 839.452,2946.22C840.485,2946.59 841.368,2947.09 842.102,2947.72C842.835,2948.36 843.41,2949.12 843.827,2950C844.243,2950.88 844.452,2951.82 844.452,2952.82C844.452,2954.36 844.01,2955.64 843.127,2956.67C842.243,2957.71 841.143,2958.63 839.827,2959.45C838.51,2960.27 837.085,2961.03 835.552,2961.75C834.018,2962.47 832.593,2963.27 831.277,2964.15C829.96,2965.03 828.86,2966.06 827.977,2967.22C827.093,2968.39 826.652,2969.84 826.652,2971.57C826.652,2972.87 826.91,2974.03 827.427,2975.05C827.943,2976.07 828.643,2976.92 829.527,2977.6C830.41,2978.28 831.418,2978.8 832.552,2979.15C833.685,2979.5 834.852,2979.67 836.052,2979.67C837.252,2979.67 838.427,2979.5 839.577,2979.15C840.727,2978.8 841.743,2978.28 842.627,2977.6C843.51,2976.92 844.227,2976.07 844.777,2975.07C845.327,2974.07 845.602,2972.91 845.602,2971.57C845.602,2969.84 845.16,2968.4 844.277,2967.25C843.393,2966.1 842.293,2965.09 840.977,2964.22C839.66,2963.36 838.227,2962.57 836.677,2961.85C835.127,2961.13 833.693,2960.37 832.377,2959.55C831.06,2958.73 829.96,2957.8 829.077,2956.75C828.193,2955.7 827.752,2954.39 827.752,2952.82C827.752,2951.92 827.918,2951.04 828.252,2950.17C828.585,2949.31 829.093,2948.54 829.777,2947.87C830.46,2947.21 831.318,2946.67 832.352,2946.27C833.385,2945.87 834.585,2945.67 835.952,2945.67L836.052,2945.67Z" style="fill:none;fill-rule:nonzero;stroke:rgb(35,31,32);stroke-width:0.14px;"/>
    </g>
    <g transform="matrix(2.94327,0,0,2.94327,-1185.69,-5702.12)">
        <path d="M859.453,2979.67L867.402,2969.07C868.436,2967.71 869.302,2966.44 870.002,2965.27C870.702,2964.11 871.269,2963 871.702,2961.95C872.135,2960.9 872.452,2959.88 872.652,2958.9C872.852,2957.91 872.952,2956.92 872.952,2955.92C872.952,2954.69 872.769,2953.46 872.402,2952.22C872.035,2950.99 871.452,2949.89 870.652,2948.92C869.852,2947.96 868.811,2947.17 867.527,2946.57C866.244,2945.97 864.686,2945.67 862.853,2945.67C861.253,2945.67 859.828,2945.92 858.578,2946.42C857.328,2946.92 856.278,2947.62 855.428,2948.5C854.578,2949.38 853.936,2950.42 853.503,2951.62C853.07,2952.82 852.853,2954.14 852.853,2955.57C852.853,2957.14 853.12,2958.56 853.653,2959.82C854.186,2961.09 854.895,2962.16 855.778,2963.02C856.661,2963.89 857.686,2964.56 858.853,2965.02C860.019,2965.49 861.253,2965.72 862.553,2965.72C864.286,2965.72 866.036,2965.31 867.802,2964.47C869.569,2963.64 871.035,2962.32 872.202,2960.52" style="fill:none;fill-rule:nonzero;stroke:rgb(35,31,32);stroke-width:0.14px;"/>
    </g>
    <g transform="matrix(2.94327,0,0,2.94327,-1185.69,-5702.12)">
        <path d="M899.302,2964.27L896.252,2964.27C891.218,2964.27 887.577,2964.95 885.327,2966.3C883.077,2967.65 881.952,2969.76 881.952,2972.62C881.952,2973.52 882.093,2974.4 882.377,2975.25C882.66,2976.1 883.085,2976.85 883.652,2977.5C884.218,2978.15 884.935,2978.67 885.802,2979.07C886.668,2979.47 887.702,2979.67 888.902,2979.67C891.068,2979.67 892.993,2979.05 894.677,2977.8C896.36,2976.55 897.902,2975.01 899.302,2973.17L899.302,2964.27ZM899.502,2979.67C899.435,2978.74 899.385,2977.62 899.352,2976.3C899.318,2974.98 899.302,2973.81 899.302,2972.77L899.302,2960.77C899.302,2959.57 899.168,2958.43 898.902,2957.35C898.635,2956.27 898.202,2955.32 897.602,2954.52C897.002,2953.72 896.21,2953.09 895.227,2952.62C894.243,2952.16 893.018,2951.92 891.552,2951.92C889.418,2951.92 887.693,2952.41 886.377,2953.37C885.06,2954.34 883.985,2955.77 883.152,2957.67" style="fill:none;fill-rule:nonzero;stroke:rgb(35,31,32);stroke-width:0.14px;"/>
    </g>
    <g transform="matrix(2.94327,0,0,2.94327,-1185.69,-5702.12)">
        <path d="M912.402,2979.67L912.402,2942.42L912.402,2979.67ZM912.402,2972.82C913.468,2974.96 914.81,2976.63 916.427,2977.85C918.043,2979.07 919.918,2979.67 922.052,2979.67C923.752,2979.67 925.202,2979.29 926.402,2978.52C927.602,2977.76 928.585,2976.73 929.352,2975.45C930.118,2974.17 930.677,2972.68 931.027,2971C931.377,2969.32 931.552,2967.56 931.552,2965.72C931.552,2963.62 931.343,2961.72 930.927,2960.02C930.51,2958.32 929.902,2956.87 929.102,2955.67C928.302,2954.47 927.318,2953.55 926.152,2952.9C924.985,2952.25 923.635,2951.92 922.102,2951.92C920.268,2951.92 918.535,2952.44 916.902,2953.47C915.268,2954.51 913.768,2956.22 912.402,2958.62L912.402,2972.82Z" style="fill:none;fill-rule:nonzero;stroke:rgb(35,31,32);stroke-width:0.14px;"/>
    </g>
    <g transform="matrix(2.94327,0,0,2.94327,-1185.69,-5702.12)">
        <path d="M958.302,2957.17C958.035,2956.51 957.668,2955.86 957.202,2955.22C956.735,2954.59 956.177,2954.03 955.527,2953.55C954.877,2953.07 954.135,2952.67 953.302,2952.37C952.468,2952.07 951.535,2951.92 950.502,2951.92C948.935,2951.92 947.535,2952.27 946.302,2952.95C945.068,2953.63 944.027,2954.6 943.177,2955.85C942.327,2957.1 941.677,2958.6 941.227,2960.35C940.777,2962.1 940.552,2964.02 940.552,2966.12C940.552,2968.16 940.768,2970.02 941.202,2971.7C941.635,2973.38 942.277,2974.81 943.127,2975.97C943.977,2977.14 945.018,2978.05 946.252,2978.7C947.485,2979.35 948.918,2979.67 950.552,2979.67C952.518,2979.67 954.093,2979.23 955.277,2978.35C956.46,2977.47 957.485,2976.27 958.352,2974.77" style="fill:none;fill-rule:nonzero;stroke:rgb(35,31,32);stroke-width:0.14px;"/>
    </g>
    <g transform="matrix(2.94327,0,0,2.94327,-1185.69,-5702.12)">
        <path d="M986.252,2979.67L986.252,2942.42L986.252,2979.67ZM986.252,2972.82C985.185,2974.96 983.843,2976.63 982.227,2977.85C980.61,2979.07 978.735,2979.67 976.602,2979.67C974.902,2979.67 973.452,2979.29 972.252,2978.52C971.052,2977.76 970.068,2976.73 969.302,2975.45C968.535,2974.17 967.977,2972.68 967.627,2971C967.277,2969.32 967.102,2967.56 967.102,2965.72C967.102,2963.62 967.31,2961.72 967.727,2960.02C968.143,2958.32 968.752,2956.87 969.552,2955.67C970.352,2954.47 971.335,2953.55 972.502,2952.9C973.668,2952.25 975.018,2951.92 976.552,2951.92C978.385,2951.92 980.118,2952.44 981.752,2953.47C983.385,2954.51 984.885,2956.22 986.252,2958.62L986.252,2972.82Z" style="fill:none;fill-rule:nonzero;stroke:rgb(35,31,32);stroke-width:0.14px;"/>
    </g>
    <g transform="matrix(2.94327,0,0,2.94327,-1185.69,-5702.12)">
        <path d="M997.852,2964.42L1017.05,2964.42C1017.05,2963.02 1016.92,2961.58 1016.65,2960.1C1016.38,2958.62 1015.91,2957.27 1015.23,2956.07C1014.54,2954.87 1013.61,2953.88 1012.43,2953.1C1011.24,2952.32 1009.75,2951.92 1007.95,2951.92C1006.38,2951.92 1004.98,2952.24 1003.73,2952.87C1002.48,2953.51 1001.41,2954.42 1000.53,2955.62C999.643,2956.82 998.96,2958.29 998.477,2960.02C997.993,2961.76 997.752,2963.72 997.752,2965.92C997.752,2967.92 997.952,2969.76 998.352,2971.42C998.752,2973.09 999.377,2974.54 1000.23,2975.77C1001.08,2977.01 1002.15,2977.97 1003.45,2978.65C1004.75,2979.33 1006.3,2979.67 1008.1,2979.67C1009.27,2979.67 1010.31,2979.52 1011.23,2979.22C1012.14,2978.92 1012.95,2978.52 1013.65,2978.02C1014.35,2977.52 1014.95,2976.94 1015.45,2976.27C1015.95,2975.61 1016.35,2974.91 1016.65,2974.17" style="fill:none;fill-rule:nonzero;stroke:rgb(35,31,32);stroke-width:0.14px;"/>
    </g>
    <g transform="matrix(2.94327,0,0,2.94327,-1185.69,-5702.12)">
        <path d="M1028.8,2979.67L1028.8,2948.72C1028.8,2946.79 1029.25,2945.26 1030.15,2944.12C1031.05,2942.99 1032.4,2942.42 1034.2,2942.42C1035.6,2942.42 1036.77,2942.77 1037.7,2943.47M1023.8,2954.67L1036.15,2954.67L1023.8,2954.67Z" style="fill:none;fill-rule:nonzero;stroke:rgb(35,31,32);stroke-width:0.14px;"/>
    </g>
    <g transform="matrix(2.94327,0,0,2.94327,-1185.69,-5702.12)">
        <path d="M1061.6,2958.62C1060.24,2956.22 1058.74,2954.51 1057.1,2953.47C1055.47,2952.44 1053.75,2951.92 1051.95,2951.92C1050.42,2951.92 1049.06,2952.25 1047.88,2952.9C1046.69,2953.55 1045.7,2954.46 1044.9,2955.62C1044.1,2956.79 1043.49,2958.19 1043.08,2959.82C1042.66,2961.46 1042.45,2963.26 1042.45,2965.22C1042.45,2966.99 1042.63,2968.69 1042.98,2970.32C1043.33,2971.96 1043.88,2973.39 1044.65,2974.62C1045.42,2975.86 1046.4,2976.84 1047.6,2977.57C1048.8,2978.31 1050.25,2978.67 1051.95,2978.67C1054.09,2978.67 1055.96,2978.12 1057.58,2977C1059.19,2975.88 1060.54,2974.32 1061.6,2972.32L1061.6,2958.62ZM1044.3,2985.02C1045.17,2986.46 1046.29,2987.51 1047.68,2988.17C1049.06,2988.84 1050.68,2989.17 1052.55,2989.17C1055.45,2989.17 1057.68,2988.39 1059.25,2986.82C1060.82,2985.26 1061.6,2982.91 1061.6,2979.77L1061.6,2951.92" style="fill:none;fill-rule:nonzero;stroke:rgb(35,31,32);stroke-width:0.14px;"/>
    </g>
    <g transform="matrix(2.94327,0,0,2.94327,-1185.69,-5702.12)">
        <path d="M1075.35,2979.67L1075.35,2942.42L1075.35,2979.67ZM1092,2979.67L1092,2958.92C1092,2956.72 1091.51,2955.01 1090.53,2953.77C1089.54,2952.54 1088.09,2951.92 1086.15,2951.92C1085.05,2951.92 1084.01,2952.12 1083.03,2952.52C1082.04,2952.92 1081.11,2953.45 1080.23,2954.1C1079.34,2954.75 1078.5,2955.5 1077.7,2956.35C1076.9,2957.2 1076.12,2958.06 1075.35,2958.92" style="fill:none;fill-rule:nonzero;stroke:rgb(35,31,32);stroke-width:0.14px;"/>
    </g>
    <g transform="matrix(2.94327,0,0,2.94327,-1185.69,-5702.12)">
        <path d="M1105.75,2979.67L1105.75,2951.92L1105.75,2979.67ZM1105.8,2951.92L1105.7,2951.92L1105.8,2951.92ZM1105.75,2945.77L1105.75,2940.42L1105.75,2945.77ZM1105.8,2940.42L1105.7,2940.42L1105.8,2940.42Z" style="fill:none;fill-rule:nonzero;stroke:rgb(35,31,32);stroke-width:0.14px;"/>
    </g>
    <g transform="matrix(2.94327,0,0,2.94327,-1185.69,-5702.12)">
        <path d="M1120.55,2945.77L1120.55,2940.42L1120.55,2945.77ZM1120.6,2940.42L1120.5,2940.42L1120.6,2940.42ZM1112.75,2987.92C1113.12,2988.29 1113.6,2988.59 1114.2,2988.82C1114.8,2989.06 1115.52,2989.17 1116.35,2989.17C1117.95,2989.17 1119.07,2988.72 1119.7,2987.8C1120.34,2986.88 1120.65,2985.56 1120.65,2983.82L1120.65,2951.92" style="fill:none;fill-rule:nonzero;stroke:rgb(35,31,32);stroke-width:0.14px;"/>
    </g>
    <g transform="matrix(2.94327,0,0,2.94327,-1185.69,-5702.12)">
        <path d="M1134.4,2979.67L1134.4,2942.42L1134.4,2979.67ZM1148.3,2979.67L1134.4,2964.57L1147.2,2951.92" style="fill:none;fill-rule:nonzero;stroke:rgb(35,31,32);stroke-width:0.14px;"/>
    </g>
    <g transform="matrix(2.94327,0,0,2.94327,-1185.69,-5702.12)">
        <path d="M1166.4,2979.47C1166.24,2979.54 1166.02,2979.59 1165.75,2979.62C1165.49,2979.66 1165.18,2979.67 1164.85,2979.67C1161.99,2979.67 1160.55,2977.89 1160.55,2974.32L1160.55,2942.42" style="fill:none;fill-rule:nonzero;stroke:rgb(35,31,32);stroke-width:0.14px;"/>
    </g>
    <g transform="matrix(2.94327,0,0,2.94327,-1185.69,-5702.12)">
        <path d="M1176.15,2951.92L1176.15,2979.67L1176.15,2951.92ZM1192.8,2979.67L1192.8,2958.92C1192.8,2956.72 1192.31,2955.01 1191.33,2953.77C1190.34,2952.54 1188.88,2951.92 1186.95,2951.92C1185.85,2951.92 1184.81,2952.12 1183.83,2952.52C1182.84,2952.92 1181.91,2953.45 1181.03,2954.1C1180.14,2954.75 1179.3,2955.5 1178.5,2956.35C1177.7,2957.2 1176.92,2958.06 1176.15,2958.92M1209.45,2979.67L1209.45,2958.92C1209.45,2956.72 1208.96,2955.01 1207.98,2953.77C1206.99,2952.54 1205.54,2951.92 1203.6,2951.92C1202.5,2951.92 1201.46,2952.12 1200.48,2952.52C1199.49,2952.92 1198.56,2953.45 1197.68,2954.1C1196.79,2954.75 1195.95,2955.5 1195.15,2956.35C1194.35,2957.2 1193.57,2958.06 1192.8,2958.92" style="fill:none;fill-rule:nonzero;stroke:rgb(35,31,32);stroke-width:0.14px;"/>
    </g>
    <g transform="matrix(2.94327,0,0,2.94327,-1185.69,-5702.12)">
        <path d="M1223.2,2951.92L1223.2,2979.67L1223.2,2951.92ZM1239.85,2979.67L1239.85,2958.92C1239.85,2956.72 1239.36,2955.01 1238.38,2953.77C1237.39,2952.54 1235.93,2951.92 1234,2951.92C1232.9,2951.92 1231.86,2952.12 1230.88,2952.52C1229.89,2952.92 1228.96,2953.45 1228.08,2954.1C1227.19,2954.75 1226.35,2955.5 1225.55,2956.35C1224.75,2957.2 1223.97,2958.06 1223.2,2958.92" style="fill:none;fill-rule:nonzero;stroke:rgb(35,31,32);stroke-width:0.14px;"/>
    </g>
    <g transform="matrix(2.94327,0,0,2.94327,-1185.69,-5702.12)">
        <path d="M1261.35,2951.92C1259.32,2951.92 1257.63,2952.4 1256.3,2953.35C1254.97,2954.3 1253.92,2955.47 1253.15,2956.87C1252.38,2958.27 1251.85,2959.79 1251.55,2961.42C1251.25,2963.06 1251.1,2964.56 1251.1,2965.92C1251.1,2967.62 1251.3,2969.29 1251.7,2970.92C1252.1,2972.56 1252.72,2974.02 1253.55,2975.32C1254.38,2976.62 1255.45,2977.67 1256.75,2978.47C1258.05,2979.27 1259.6,2979.67 1261.4,2979.67C1263.2,2979.67 1264.75,2979.27 1266.05,2978.47C1267.35,2977.67 1268.42,2976.62 1269.25,2975.32C1270.09,2974.02 1270.7,2972.56 1271.1,2970.92C1271.5,2969.29 1271.7,2967.62 1271.7,2965.92C1271.7,2964.56 1271.55,2963.06 1271.25,2961.42C1270.95,2959.79 1270.42,2958.27 1269.65,2956.87C1268.88,2955.47 1267.84,2954.3 1266.53,2953.35C1265.21,2952.4 1263.52,2951.92 1261.45,2951.92L1261.35,2951.92Z" style="fill:none;fill-rule:nonzero;stroke:rgb(35,31,32);stroke-width:0.14px;"/>
    </g>
    <g transform="matrix(2.94327,0,0,2.94327,-1185.69,-5702.12)">
        <path d="M1283.2,2951.92L1283.2,2989.17L1283.2,2951.92ZM1283.2,2972.82C1284.27,2974.96 1285.61,2976.63 1287.23,2977.85C1288.84,2979.07 1290.72,2979.67 1292.85,2979.67C1294.55,2979.67 1296,2979.29 1297.2,2978.52C1298.4,2977.76 1299.38,2976.73 1300.15,2975.45C1300.92,2974.17 1301.48,2972.68 1301.83,2971C1302.18,2969.32 1302.35,2967.56 1302.35,2965.72C1302.35,2963.62 1302.14,2961.72 1301.73,2960.02C1301.31,2958.32 1300.7,2956.87 1299.9,2955.67C1299.1,2954.47 1298.12,2953.55 1296.95,2952.9C1295.79,2952.25 1294.43,2951.92 1292.9,2951.92C1291.07,2951.92 1289.34,2952.44 1287.7,2953.47C1286.07,2954.51 1284.57,2956.22 1283.2,2958.62L1283.2,2972.82Z" style="fill:none;fill-rule:nonzero;stroke:rgb(35,31,32);stroke-width:0.14px;"/>
    </g>
    <g transform="matrix(2.94327,0,0,2.94327,-1185.69,-5702.12)">
        <path d="M1330.5,2951.92L1330.5,2989.17L1330.5,2951.92ZM1330.5,2972.82C1329.43,2974.96 1328.09,2976.63 1326.48,2977.85C1324.86,2979.07 1322.99,2979.67 1320.85,2979.67C1319.15,2979.67 1317.7,2979.29 1316.5,2978.52C1315.3,2977.76 1314.32,2976.73 1313.55,2975.45C1312.79,2974.17 1312.23,2972.68 1311.88,2971C1311.53,2969.32 1311.35,2967.56 1311.35,2965.72C1311.35,2963.62 1311.56,2961.72 1311.98,2960.02C1312.39,2958.32 1313,2956.87 1313.8,2955.67C1314.6,2954.47 1315.59,2953.55 1316.75,2952.9C1317.92,2952.25 1319.27,2951.92 1320.8,2951.92C1322.63,2951.92 1324.37,2952.44 1326,2953.47C1327.63,2954.51 1329.13,2956.22 1330.5,2958.62L1330.5,2972.82Z" style="fill:none;fill-rule:nonzero;stroke:rgb(35,31,32);stroke-width:0.14px;"/>
    </g>
    <g transform="matrix(2.94327,0,0,2.94327,-1185.69,-5702.12)">
        <path d="M1344.5,2951.92L1344.5,2979.67L1344.5,2951.92ZM1344.5,2958.92C1346.3,2956.86 1348.02,2955.17 1349.65,2953.87C1351.29,2952.57 1352.87,2951.92 1354.4,2951.92" style="fill:none;fill-rule:nonzero;stroke:rgb(35,31,32);stroke-width:0.14px;"/>
    </g>
    <g transform="matrix(2.94327,0,0,2.94327,-1185.69,-5702.12)">
        <path d="M1360.7,2973.77C1361.3,2975.64 1362.42,2977.09 1364.05,2978.12C1365.68,2979.16 1367.57,2979.67 1369.7,2979.67C1370.7,2979.67 1371.7,2979.54 1372.7,2979.27C1373.7,2979.01 1374.59,2978.6 1375.38,2978.05C1376.16,2977.5 1376.79,2976.8 1377.28,2975.95C1377.76,2975.1 1378,2974.09 1378,2972.92C1378,2971.39 1377.6,2970.16 1376.8,2969.22C1376,2968.29 1374.99,2967.52 1373.78,2966.92C1372.56,2966.32 1371.24,2965.8 1369.83,2965.35C1368.41,2964.9 1367.09,2964.38 1365.88,2963.8C1364.66,2963.22 1363.65,2962.5 1362.85,2961.65C1362.05,2960.8 1361.65,2959.64 1361.65,2958.17C1361.65,2957.07 1361.89,2956.13 1362.38,2955.35C1362.86,2954.57 1363.48,2953.92 1364.23,2953.4C1364.98,2952.88 1365.81,2952.51 1366.73,2952.27C1367.64,2952.04 1368.55,2951.92 1369.45,2951.92C1371.22,2951.92 1372.75,2952.33 1374.05,2953.15C1375.35,2953.97 1376.32,2955.11 1376.95,2956.57" style="fill:none;fill-rule:nonzero;stroke:rgb(35,31,32);stroke-width:0.14px;"/>
    </g>
    <g transform="matrix(2.94327,0,0,2.94327,-1185.69,-5702.12)">
        <path d="M1398.6,2978.32C1398.13,2978.72 1397.57,2979.05 1396.9,2979.3C1396.24,2979.55 1395.47,2979.67 1394.6,2979.67C1393.04,2979.67 1391.84,2979.22 1391,2978.3C1390.17,2977.38 1389.75,2975.89 1389.75,2973.82L1389.75,2946.67M1384.75,2954.62L1397.9,2954.62L1384.75,2954.62Z" style="fill:none;fill-rule:nonzero;stroke:rgb(35,31,32);stroke-width:0.14px;"/>
    </g>
    <g transform="matrix(2.94327,0,0,2.94327,-1185.69,-5702.12)">
        <path d="M1424.75,2972.67C1424.25,2973.51 1423.65,2974.35 1422.95,2975.2C1422.25,2976.05 1421.48,2976.8 1420.63,2977.45C1419.78,2978.1 1418.85,2978.63 1417.85,2979.05C1416.85,2979.47 1415.8,2979.67 1414.7,2979.67C1412.77,2979.67 1411.23,2979.03 1410.08,2977.75C1408.93,2976.47 1408.35,2974.61 1408.35,2972.17L1408.35,2951.92M1424.75,2951.92L1424.75,2979.67L1424.75,2951.92Z" style="fill:none;fill-rule:nonzero;stroke:rgb(35,31,32);stroke-width:0.14px;"/>
    </g>
    <g transform="matrix(2.94327,0,0,2.94327,-1185.69,-5702.12)">
        <path d="M1434.75,2951.92L1445.2,2979.42L1445.4,2979.42L1455.7,2951.92" style="fill:none;fill-rule:nonzero;stroke:rgb(35,31,32);stroke-width:0.14px;"/>
    </g>
    <g transform="matrix(2.94327,0,0,2.94327,-1185.69,-5702.12)">
        <path d="M1462.2,2951.92L1470.55,2979.42L1470.75,2979.42L1479.1,2952.42L1479.3,2952.42L1487.9,2979.42L1488.1,2979.42L1496.05,2951.92" style="fill:none;fill-rule:nonzero;stroke:rgb(35,31,32);stroke-width:0.14px;"/>
    </g>
    <g transform="matrix(2.94327,0,0,2.94327,-1185.69,-5702.12)">
        <path d="M1503.05,2979.67L1522.45,2951.92L1503.05,2979.67ZM1523.05,2979.67L1504.3,2951.92L1523.05,2979.67Z" style="fill:none;fill-rule:nonzero;stroke:rgb(35,31,32);stroke-width:0.14px;"/>
    </g>
    <g transform="matrix(2.94327,0,0,2.94327,-1185.69,-5702.12)">
        <path d="M1540.6,2979.67L1530.05,2951.92L1540.6,2979.67ZM1531.55,2988.42C1532.35,2988.92 1533.18,2989.17 1534.05,2989.17C1535.52,2989.17 1536.71,2988.45 1537.63,2987C1538.54,2985.55 1539.47,2983.39 1540.4,2980.52L1551,2951.92" style="fill:none;fill-rule:nonzero;stroke:rgb(35,31,32);stroke-width:0.14px;"/>
    </g>
    <g transform="matrix(2.94327,0,0,2.94327,-1185.69,-5702.12)">
        <path d="M1588.25,2969.02L1606.6,2969.02L1588.25,2969.02ZM1610.8,2979.67L1597.6,2945.92L1597.4,2945.92L1584,2979.67" style="fill:none;fill-rule:nonzero;stroke:rgb(35,31,32);stroke-width:0.14px;"/>
    </g>
    <g transform="matrix(2.94327,0,0,2.94327,-1185.69,-5702.12)">
        <path d="M1621.3,2979.17L1629.4,2979.17C1631.57,2979.17 1633.39,2978.95 1634.88,2978.5C1636.36,2978.05 1637.55,2977.44 1638.45,2976.67C1639.35,2975.91 1640,2974.99 1640.4,2973.92C1640.8,2972.86 1641,2971.71 1641,2970.47C1641,2967.87 1640.13,2965.79 1638.38,2964.22C1636.63,2962.66 1633.77,2961.87 1629.8,2961.87L1621.3,2961.87L1621.3,2979.17ZM1630.8,2961.87C1632.04,2961.87 1633.2,2961.72 1634.3,2961.42C1635.4,2961.12 1636.38,2960.65 1637.23,2960C1638.08,2959.35 1638.75,2958.52 1639.25,2957.52C1639.75,2956.52 1640,2955.32 1640,2953.92C1640,2952.96 1639.84,2952.01 1639.53,2951.07C1639.21,2950.14 1638.65,2949.31 1637.85,2948.57C1637.05,2947.84 1635.97,2947.26 1634.6,2946.82C1633.24,2946.39 1631.49,2946.17 1629.35,2946.17L1621.3,2946.17L1621.3,2979.17" style="fill:none;fill-rule:nonzero;stroke:rgb(35,31,32);stroke-width:0.14px;"/>
    </g>
    <g transform="matrix(2.94327,0,0,2.94327,-1185.69,-5702.12)">
        <path d="M1674.3,2952.82C1672.43,2948.06 1668.97,2945.67 1663.9,2945.67C1661.77,2945.67 1659.88,2946.08 1658.25,2946.9C1656.62,2947.72 1655.24,2948.87 1654.13,2950.35C1653.01,2951.83 1652.17,2953.62 1651.6,2955.7C1651.04,2957.78 1650.75,2960.09 1650.75,2962.62C1650.75,2965.42 1651.09,2967.89 1651.75,2970.02C1652.42,2972.16 1653.34,2973.93 1654.53,2975.35C1655.71,2976.77 1657.1,2977.84 1658.7,2978.57C1660.3,2979.31 1662.04,2979.67 1663.9,2979.67C1665.37,2979.67 1666.7,2979.47 1667.9,2979.05C1669.1,2978.63 1670.17,2978.07 1671.1,2977.37C1672.04,2976.67 1672.84,2975.87 1673.5,2974.95C1674.17,2974.03 1674.67,2973.06 1675,2972.02" style="fill:none;fill-rule:nonzero;stroke:rgb(35,31,32);stroke-width:0.14px;"/>
    </g>
    <g transform="matrix(2.94327,0,0,2.94327,-1025.32,-5807.83)">
        <path d="M1522.01,3014.77L1504.01,3014.77L1504.01,3014.57L1521.26,2988.22L1521.26,2988.02L1504.16,2988.02" style="fill:none;fill-rule:nonzero;stroke:rgb(35,31,32);stroke-width:0.14px;"/>
    </g>
    <g transform="matrix(2.94327,0,0,2.94327,-1185.69,-5702.12)">
        <path d="M1686.25,2979.17L1686.25,2946.17L1693.6,2946.17C1696.07,2946.17 1698.29,2946.56 1700.28,2947.32C1702.26,2948.09 1703.95,2949.19 1705.35,2950.62C1706.75,2952.06 1707.82,2953.79 1708.55,2955.82C1709.29,2957.86 1709.65,2960.16 1709.65,2962.72C1709.65,2965.66 1709.16,2968.17 1708.18,2970.25C1707.19,2972.33 1705.9,2974.04 1704.3,2975.37C1702.7,2976.71 1700.86,2977.67 1698.78,2978.27C1696.69,2978.87 1694.52,2979.17 1692.25,2979.17L1686.25,2979.17Z" style="fill:none;fill-rule:nonzero;stroke:rgb(35,31,32);stroke-width:0.14px;"/>
    </g>
    <g transform="matrix(2.94327,0,0,2.94327,-1185.69,-5702.12)">
        <path d="M1738.95,2979.17L1720.9,2979.17L1720.9,2946.17L1738.95,2946.17M1720.9,2961.87L1738.1,2961.87L1720.9,2961.87Z" style="fill:none;fill-rule:nonzero;stroke:rgb(35,31,32);stroke-width:0.14px;"/>
    </g>
    <g transform="matrix(2.94327,0,0,2.94327,-1185.69,-5702.12)">
        <path d="M1749.95,2979.67L1749.95,2946.17L1767,2946.17M1749.95,2962.32L1766.15,2962.32L1749.95,2962.32Z" style="fill:none;fill-rule:nonzero;stroke:rgb(35,31,32);stroke-width:0.14px;"/>
    </g>
    <g transform="matrix(2.94327,0,0,2.94327,-1185.69,-5702.12)">
        <path d="M1798.05,2952.82C1796.18,2948.06 1792.72,2945.67 1787.65,2945.67C1785.62,2945.67 1783.79,2946.05 1782.18,2946.8C1780.56,2947.55 1779.18,2948.65 1778.05,2950.1C1776.92,2951.55 1776.04,2953.33 1775.43,2955.45C1774.81,2957.57 1774.5,2959.97 1774.5,2962.67C1774.5,2965.01 1774.74,2967.21 1775.23,2969.27C1775.71,2971.34 1776.49,2973.15 1777.55,2974.7C1778.62,2976.25 1780,2977.47 1781.7,2978.35C1783.4,2979.23 1785.47,2979.67 1787.9,2979.67C1789.9,2979.67 1791.73,2979.39 1793.38,2978.82C1795.03,2978.26 1796.49,2977.59 1797.75,2976.82L1797.75,2962.97L1788.9,2962.97" style="fill:none;fill-rule:nonzero;stroke:rgb(35,31,32);stroke-width:0.14px;"/>
    </g>
    <g transform="matrix(2.94327,0,0,2.94327,-1185.69,-5702.12)">
        <path d="M1810.55,2945.67L1810.55,2979.67L1810.55,2945.67ZM1810.55,2961.42L1831.85,2961.42L1810.55,2961.42ZM1831.85,2979.67L1831.85,2945.67L1831.85,2979.67Z" style="fill:none;fill-rule:nonzero;stroke:rgb(35,31,32);stroke-width:0.14px;"/>
    </g>
    <g transform="matrix(2.94327,0,0,2.94327,-1185.69,-5702.12)">
        <path d="M1845.85,2979.67L1845.85,2945.67L1845.85,2979.67ZM1845.9,2945.67L1845.8,2945.67L1845.9,2945.67Z" style="fill:none;fill-rule:nonzero;stroke:rgb(35,31,32);stroke-width:0.14px;"/>
    </g>
    <g transform="matrix(2.94327,0,0,2.94327,-1185.69,-5702.12)">
        <path d="M1855.35,2978.22C1855.92,2978.79 1856.55,2979.17 1857.25,2979.37C1857.95,2979.57 1858.62,2979.67 1859.25,2979.67C1859.95,2979.67 1860.62,2979.56 1861.25,2979.32C1861.88,2979.09 1862.43,2978.7 1862.9,2978.15C1863.37,2977.6 1863.74,2976.89 1864,2976.02C1864.27,2975.16 1864.4,2974.07 1864.4,2972.77L1864.4,2945.67" style="fill:none;fill-rule:nonzero;stroke:rgb(35,31,32);stroke-width:0.14px;"/>
    </g>
    <g transform="matrix(2.94327,0,0,2.94327,-1185.69,-5702.12)">
        <path d="M1877.9,2979.67L1877.9,2945.67L1877.9,2979.67ZM1897.25,2979.67L1880.45,2961.72L1896.05,2945.67" style="fill:none;fill-rule:nonzero;stroke:rgb(35,31,32);stroke-width:0.14px;"/>
    </g>
    <g transform="matrix(2.94327,0,0,2.94327,-1185.69,-5702.12)">
        <path d="M1922.65,2979.17L1906.75,2979.17L1906.75,2945.67" style="fill:none;fill-rule:nonzero;stroke:rgb(35,31,32);stroke-width:0.14px;"/>
    </g>
    <g transform="matrix(2.94327,0,0,2.94327,-1185.69,-5702.12)">
        <path d="M1960.25,2979.67L1960.25,2945.92L1960.05,2945.92L1945.8,2978.17L1945.6,2978.17L1931.35,2945.92L1931.15,2945.92L1931.15,2979.67" style="fill:none;fill-rule:nonzero;stroke:rgb(35,31,32);stroke-width:0.14px;"/>
    </g>
    <g transform="matrix(2.94327,0,0,2.94327,-1185.69,-5702.12)">
        <path d="M1974.25,2979.67L1974.25,2945.92L1974.45,2945.92L1997.05,2979.42L1997.25,2979.42L1997.2,2945.67" style="fill:none;fill-rule:nonzero;stroke:rgb(35,31,32);stroke-width:0.14px;"/>
    </g>
    <g transform="matrix(2.94327,0,0,2.94327,-1185.69,-5702.12)">
        <path d="M2022.1,2945.67C2019.74,2945.67 2017.73,2946.18 2016.08,2947.2C2014.43,2948.22 2013.08,2949.53 2012.03,2951.15C2010.98,2952.77 2010.21,2954.58 2009.73,2956.6C2009.24,2958.62 2009,2960.62 2009,2962.62C2009,2963.72 2009.09,2964.92 2009.25,2966.2C2009.42,2967.48 2009.69,2968.76 2010.08,2970.02C2010.46,2971.29 2010.98,2972.51 2011.63,2973.67C2012.28,2974.84 2013.09,2975.87 2014.05,2976.75C2015.02,2977.63 2016.17,2978.34 2017.5,2978.87C2018.84,2979.41 2020.38,2979.67 2022.15,2979.67C2023.92,2979.67 2025.47,2979.41 2026.8,2978.87C2028.13,2978.34 2029.29,2977.63 2030.25,2976.75C2031.22,2975.87 2032.03,2974.84 2032.68,2973.67C2033.33,2972.51 2033.84,2971.29 2034.23,2970.02C2034.61,2968.76 2034.88,2967.48 2035.05,2966.2C2035.22,2964.92 2035.3,2963.72 2035.3,2962.62C2035.3,2960.62 2035.06,2958.62 2034.58,2956.6C2034.09,2954.58 2033.33,2952.77 2032.28,2951.15C2031.23,2949.53 2029.88,2948.22 2028.23,2947.2C2026.58,2946.18 2024.57,2945.67 2022.2,2945.67L2022.1,2945.67Z" style="fill:none;fill-rule:nonzero;stroke:rgb(35,31,32);stroke-width:0.14px;"/>
    </g>
</svg>
