<?xml version="1.0" encoding="UTF-8" standalone="no"?>
<!DOCTYPE svg PUBLIC "-//W3C//DTD SVG 1.1//EN" "http://www.w3.org/Graphics/SVG/1.1/DTD/svg11.dtd">
<svg width="100%" height="100%" viewBox="0 0 10000 300" version="1.1" xmlns="http://www.w3.org/2000/svg" xmlns:xlink="http://www.w3.org/1999/xlink" xml:space="preserve" xmlns:serif="http://www.serif.com/" style="fill-rule:evenodd;clip-rule:evenodd;stroke-linejoin:round;stroke-miterlimit:2;">
    <path d="M32.376,20.309C26.98,20.309 22.246,21.633 18.175,24.282C14.103,26.931 10.718,30.536 8.02,35.098C5.322,39.661 3.311,45.007 1.987,51.139C0.662,57.271 0,63.82 0,70.786C0,77.849 0.662,84.398 1.987,90.432C3.311,96.466 5.322,101.714 8.02,106.178C10.718,110.642 14.103,114.125 18.175,116.627C22.246,119.129 27.029,120.38 32.523,120.38C38.017,120.38 42.8,119.129 46.872,116.627C50.943,114.125 54.328,110.642 57.026,106.178C59.724,101.714 61.735,96.466 63.059,90.432C64.384,84.398 65.046,77.849 65.046,70.786C65.046,63.82 64.384,57.271 63.059,51.139C61.735,45.007 59.724,39.661 57.026,35.098C54.328,30.536 50.968,26.931 46.945,24.282C42.923,21.633 38.164,20.309 32.67,20.309L32.376,20.309Z" style="fill:none;fill-rule:nonzero;stroke:rgb(35,31,32);stroke-width:1.67px;"/>
    <g transform="matrix(1,0,0,1,0,-2)">
        <path d="M117.731,120.38L117.731,21.78L117.142,21.78L85.649,44.002" style="fill:none;fill-rule:nonzero;stroke:rgb(35,31,32);stroke-width:1.67px;"/>
    </g>
    <path d="M209.708,120.38L150.842,120.38L150.842,119.791L183.66,83.736C186.505,80.596 189.252,77.506 191.901,74.465C194.55,71.423 196.929,68.308 199.038,65.12C201.148,61.931 202.84,58.596 204.116,55.113C205.391,51.63 206.029,47.926 206.029,44.002C206.029,39.979 205.366,36.497 204.042,33.553C202.718,30.61 200.927,28.157 198.671,26.195C196.414,24.233 193.814,22.761 190.871,21.78C187.928,20.799 184.837,20.309 181.6,20.309C175.124,20.309 169.385,22.099 164.381,25.68C159.378,29.261 155.797,34.24 153.639,40.617" style="fill:none;fill-rule:nonzero;stroke:rgb(35,31,32);stroke-width:1.67px;"/>
    <path d="M232.518,102.279C233.892,107.773 237.056,112.188 242.01,115.523C246.965,118.859 253.023,120.527 260.185,120.527C264.502,120.527 268.426,119.889 271.958,118.614C275.49,117.338 278.482,115.548 280.935,113.242C283.388,110.937 285.276,108.19 286.601,105.001C287.925,101.813 288.587,98.354 288.587,94.626C288.587,91.388 288.048,88.151 286.969,84.913C285.889,81.676 284.123,78.757 281.671,76.157C279.218,73.557 276.078,71.472 272.252,69.903C268.426,68.333 263.717,67.548 258.124,67.548L253.562,67.548M258.124,67.548C263.03,67.548 267.298,66.886 270.928,65.561C274.558,64.237 277.575,62.446 279.978,60.19C282.382,57.933 284.172,55.333 285.35,52.39C286.527,49.447 287.116,46.307 287.116,42.972C287.116,39.93 286.601,37.036 285.57,34.289C284.54,31.542 282.995,29.138 280.935,27.078C278.875,25.018 276.25,23.374 273.062,22.148C269.873,20.922 266.071,20.309 261.656,20.309C258.124,20.309 254.936,20.726 252.091,21.559C249.246,22.393 246.719,23.497 244.512,24.871C242.304,26.244 240.391,27.814 238.773,29.58C237.154,31.346 235.805,33.21 234.726,35.172" style="fill:none;fill-rule:nonzero;stroke:rgb(35,31,32);stroke-width:1.67px;"/>
    <path d="M361.433,120.38L361.433,21.78L359.962,21.78L314.341,96.245L314.341,96.833L379.681,96.833" style="fill:none;fill-rule:nonzero;stroke:rgb(35,31,32);stroke-width:1.67px;"/>
    <path d="M402.492,100.071C404.846,106.644 408.329,111.672 412.94,115.155C417.551,118.638 422.947,120.38 429.128,120.38C433.151,120.38 436.879,119.644 440.313,118.172C443.747,116.701 446.714,114.616 449.216,111.918C451.718,109.22 453.68,105.982 455.103,102.205C456.525,98.428 457.236,94.283 457.236,89.77C457.236,85.453 456.574,81.43 455.25,77.702C453.925,73.974 452.037,70.761 449.584,68.063C447.131,65.365 444.163,63.231 440.681,61.661C437.198,60.092 433.249,59.307 428.834,59.307C425.4,59.307 421.721,59.773 417.797,60.705C413.872,61.637 410.34,63.084 407.201,65.046L408.673,21.78L454.588,21.78" style="fill:none;fill-rule:nonzero;stroke:rgb(35,31,32);stroke-width:1.67px;"/>
    <path d="M523.607,20.309L500.208,51.507C497.167,55.53 494.616,59.258 492.556,62.692C490.495,66.125 488.828,69.388 487.552,72.478C486.277,75.568 485.345,78.561 484.756,81.455C484.167,84.349 483.873,87.268 483.873,90.211C483.873,93.841 484.413,97.471 485.492,101.101C486.571,104.731 488.288,107.969 490.643,110.814C492.997,113.659 496.063,115.965 499.84,117.731C503.617,119.497 508.204,120.38 513.6,120.38C518.309,120.38 522.503,119.644 526.183,118.172C529.862,116.701 532.952,114.665 535.454,112.065C537.956,109.465 539.844,106.399 541.12,102.867C542.395,99.335 543.033,95.46 543.033,91.241C543.033,86.63 542.248,82.461 540.678,78.732C539.108,75.004 537.024,71.865 534.424,69.314C531.824,66.763 528.807,64.801 525.373,63.427C521.939,62.054 518.309,61.367 514.483,61.367C509.381,61.367 504.231,62.593 499.031,65.046C493.831,67.499 489.514,71.374 486.081,76.672" style="fill:none;fill-rule:nonzero;stroke:rgb(35,31,32);stroke-width:1.67px;"/>
    <path d="M572.613,120.38L619.558,22.369L619.558,21.78L559.957,21.78" style="fill:none;fill-rule:nonzero;stroke:rgb(35,31,32);stroke-width:1.67px;"/>
    <path d="M664.884,20.309C668.514,20.309 671.85,20.848 674.891,21.927C677.932,23.007 680.532,24.478 682.691,26.342C684.849,28.206 686.542,30.438 687.768,33.038C688.994,35.638 689.607,38.41 689.607,41.353C689.607,45.866 688.307,49.643 685.708,52.684C683.108,55.726 679.87,58.448 675.995,60.852C672.119,63.256 667.925,65.512 663.412,67.622C658.899,69.731 654.705,72.086 650.83,74.685C646.955,77.285 643.717,80.302 641.117,83.736C638.517,87.17 637.217,91.437 637.217,96.539C637.217,100.365 637.978,103.775 639.498,106.767C641.019,109.759 643.079,112.261 645.679,114.272C648.279,116.284 651.247,117.804 654.583,118.834C657.918,119.865 661.352,120.38 664.884,120.38C668.416,120.38 671.874,119.865 675.259,118.834C678.644,117.804 681.636,116.284 684.236,114.272C686.836,112.261 688.945,109.784 690.564,106.841C692.183,103.897 692.992,100.464 692.992,96.539C692.992,91.437 691.692,87.194 689.092,83.81C686.492,80.425 683.255,77.457 679.38,74.906C675.504,72.355 671.286,70.025 666.724,67.916C662.161,65.807 657.943,63.55 654.067,61.146C650.192,58.743 646.955,55.996 644.355,52.905C641.755,49.815 640.455,45.964 640.455,41.353C640.455,38.704 640.945,36.104 641.926,33.553C642.908,31.002 644.404,28.746 646.415,26.784C648.426,24.822 650.953,23.252 653.994,22.075C657.035,20.897 660.567,20.309 664.59,20.309L664.884,20.309Z" style="fill:none;fill-rule:nonzero;stroke:rgb(35,31,32);stroke-width:1.67px;"/>
    <path d="M733.76,120.374L757.157,89.177C760.198,85.155 762.749,81.427 764.809,77.993C766.869,74.559 768.537,71.298 769.812,68.207C771.088,65.117 772.02,62.125 772.608,59.231C773.197,56.337 773.491,53.418 773.491,50.475C773.491,46.845 772.952,43.216 771.873,39.586C770.793,35.956 769.077,32.719 766.722,29.874C764.368,27.029 761.302,24.723 757.525,22.957C753.748,21.191 749.162,20.309 743.766,20.309C739.057,20.309 734.863,21.044 731.184,22.516C727.506,23.987 724.415,26.023 721.914,28.623C719.412,31.222 717.524,34.288 716.248,37.82C714.973,41.352 714.335,45.227 714.335,49.445C714.335,54.056 715.12,58.225 716.69,61.953C718.259,65.681 720.344,68.82 722.944,71.371C725.544,73.922 728.56,75.884 731.994,77.257C735.427,78.631 739.057,79.317 742.883,79.317C747.985,79.317 753.135,78.091 758.334,75.639C763.534,73.186 767.85,69.311 771.284,64.013" style="fill:none;fill-rule:nonzero;stroke:rgb(35,31,32);stroke-width:1.67px;"/>
    <path d="M851.046,75.053L842.069,75.053C827.254,75.053 816.536,77.04 809.913,81.013C803.291,84.987 799.98,91.192 799.98,99.63C799.98,102.279 800.397,104.854 801.231,107.356C802.065,109.857 803.316,112.065 804.983,113.978C806.651,115.891 808.761,117.436 811.311,118.614C813.862,119.791 816.904,120.38 820.436,120.38C826.813,120.38 832.478,118.54 837.433,114.861C842.387,111.182 846.925,106.644 851.046,101.248L851.046,75.053ZM851.634,120.38C851.438,117.633 851.291,114.321 851.193,110.446C851.095,106.571 851.046,103.112 851.046,100.071L851.046,64.752C851.046,61.22 850.653,57.86 849.868,54.671C849.083,51.483 847.808,48.711 846.042,46.356C844.276,44.002 841.946,42.138 839.052,40.764C836.158,39.391 832.552,38.704 828.235,38.704C821.956,38.704 816.879,40.127 813.004,42.972C809.129,45.817 805.965,50.036 803.512,55.628" style="fill:none;fill-rule:nonzero;stroke:rgb(35,31,32);stroke-width:1.67px;"/>
    <path d="M889.602,120.38L889.602,10.743L889.602,120.38ZM889.602,100.218C892.742,106.497 896.691,111.427 901.449,115.008C906.207,118.589 911.726,120.38 918.005,120.38C923.008,120.38 927.276,119.251 930.808,116.995C934.34,114.738 937.234,111.722 939.491,107.944C941.747,104.167 943.391,99.801 944.421,94.847C945.451,89.892 945.966,84.717 945.966,79.321C945.966,73.14 945.353,67.548 944.126,62.544C942.9,57.541 941.11,53.273 938.755,49.741C936.4,46.209 933.506,43.487 930.072,41.574C926.638,39.661 922.665,38.704 918.152,38.704C912.756,38.704 907.654,40.225 902.847,43.266C898.04,46.307 893.625,51.36 889.602,58.424L889.602,100.218Z" style="fill:none;fill-rule:nonzero;stroke:rgb(35,31,32);stroke-width:1.67px;"/>
    <path d="M1024.7,54.156C1023.91,52.194 1022.83,50.281 1021.46,48.417C1020.09,46.553 1018.44,44.909 1016.53,43.487C1014.62,42.064 1012.44,40.911 1009.98,40.028C1007.53,39.145 1004.78,38.704 1001.74,38.704C997.13,38.704 993.009,39.71 989.379,41.721C985.749,43.732 982.683,46.577 980.181,50.256C977.68,53.935 975.767,58.35 974.442,63.501C973.118,68.652 972.455,74.317 972.455,80.498C972.455,86.483 973.093,91.953 974.368,96.907C975.644,101.862 977.532,106.056 980.034,109.49C982.536,112.923 985.602,115.597 989.232,117.51C992.862,119.423 997.081,120.38 1001.89,120.38C1007.68,120.38 1012.31,119.08 1015.8,116.48C1019.28,113.88 1022.3,110.373 1024.85,105.958" style="fill:none;fill-rule:nonzero;stroke:rgb(35,31,32);stroke-width:1.67px;"/>
    <path d="M1106.96,120.38L1106.96,10.743L1106.96,120.38ZM1106.96,100.218C1103.82,106.497 1099.87,111.427 1095.12,115.008C1090.36,118.589 1084.84,120.38 1078.56,120.38C1073.56,120.38 1069.29,119.251 1065.76,116.995C1062.22,114.738 1059.33,111.722 1057.07,107.944C1054.82,104.167 1053.17,99.801 1052.14,94.847C1051.11,89.892 1050.6,84.717 1050.6,79.321C1050.6,73.14 1051.21,67.548 1052.44,62.544C1053.66,57.541 1055.45,53.273 1057.81,49.741C1060.16,46.209 1063.06,43.487 1066.49,41.574C1069.93,39.661 1073.9,38.704 1078.41,38.704C1083.81,38.704 1088.91,40.225 1093.72,43.266C1098.53,46.307 1102.94,51.36 1106.96,58.424L1106.96,100.218Z" style="fill:none;fill-rule:nonzero;stroke:rgb(35,31,32);stroke-width:1.67px;"/>
    <path d="M1141.11,75.495L1197.62,75.495C1197.62,71.374 1197.22,67.131 1196.44,62.765C1195.65,58.399 1194.26,54.45 1192.24,50.919C1190.23,47.387 1187.49,44.468 1184,42.162C1180.52,39.857 1176.13,38.704 1170.83,38.704C1166.22,38.704 1162.08,39.636 1158.4,41.5C1154.72,43.364 1151.58,46.062 1148.98,49.594C1146.38,53.126 1144.37,57.443 1142.94,62.544C1141.52,67.646 1140.81,73.435 1140.81,79.91C1140.81,85.796 1141.4,91.192 1142.58,96.098C1143.75,101.003 1145.59,105.271 1148.1,108.901C1150.6,112.531 1153.76,115.352 1157.59,117.363C1161.41,119.374 1165.98,120.38 1171.27,120.38C1174.71,120.38 1177.77,119.938 1180.47,119.055C1183.17,118.172 1185.55,116.995 1187.61,115.523C1189.67,114.052 1191.43,112.335 1192.91,110.373C1194.38,108.41 1195.56,106.35 1196.44,104.192" style="fill:none;fill-rule:nonzero;stroke:rgb(35,31,32);stroke-width:1.67px;"/>
    <path d="M1232.2,120.38L1232.2,29.286C1232.2,23.595 1233.52,19.082 1236.17,15.746C1238.82,12.411 1242.79,10.743 1248.09,10.743C1252.21,10.743 1255.65,11.773 1258.39,13.833M1217.48,46.798L1253.83,46.798L1217.48,46.798Z" style="fill:none;fill-rule:nonzero;stroke:rgb(35,31,32);stroke-width:1.67px;"/>
    <path d="M1328.74,58.424C1324.71,51.36 1320.3,46.307 1315.49,43.266C1310.69,40.225 1305.63,38.704 1300.34,38.704C1295.82,38.704 1291.82,39.661 1288.34,41.574C1284.86,43.487 1281.94,46.16 1279.59,49.594C1277.23,53.028 1275.44,57.148 1274.21,61.956C1272.99,66.763 1272.37,72.061 1272.37,77.849C1272.37,83.049 1272.89,88.053 1273.92,92.86C1274.95,97.667 1276.59,101.886 1278.85,105.516C1281.11,109.146 1284,112.04 1287.53,114.199C1291.06,116.357 1295.33,117.436 1300.34,117.436C1306.61,117.436 1312.13,115.793 1316.89,112.506C1321.65,109.22 1325.6,104.633 1328.74,98.747L1328.74,58.424ZM1277.82,136.126C1280.37,140.345 1283.68,143.435 1287.75,145.397C1291.82,147.36 1296.61,148.341 1302.1,148.341C1310.64,148.341 1317.21,146.035 1321.82,141.424C1326.43,136.813 1328.74,129.896 1328.74,120.674L1328.74,38.704" style="fill:none;fill-rule:nonzero;stroke:rgb(35,31,32);stroke-width:1.67px;"/>
    <path d="M1369.21,120.38L1369.21,10.743L1369.21,120.38ZM1418.21,120.38L1418.21,59.307C1418.21,52.832 1416.77,47.779 1413.87,44.149C1410.98,40.519 1406.68,38.704 1401,38.704C1397.76,38.704 1394.69,39.293 1391.8,40.47C1388.9,41.647 1386.16,43.192 1383.56,45.106C1380.96,47.019 1378.48,49.226 1376.12,51.728C1373.77,54.23 1371.46,56.756 1369.21,59.307" style="fill:none;fill-rule:nonzero;stroke:rgb(35,31,32);stroke-width:1.67px;"/>
    <path d="M1458.68,120.38L1458.68,38.704L1458.68,120.38ZM1458.83,38.704L1458.54,38.704L1458.83,38.704ZM1458.68,20.603L1458.68,4.856L1458.68,20.603ZM1458.83,4.856L1458.54,4.856L1458.83,4.856Z" style="fill:none;fill-rule:nonzero;stroke:rgb(35,31,32);stroke-width:1.67px;"/>
    <path d="M1502.24,20.603L1502.24,4.856L1502.24,20.603ZM1502.39,4.856L1502.1,4.856L1502.39,4.856ZM1479.29,144.662C1480.37,145.741 1481.79,146.624 1483.55,147.311C1485.32,147.997 1487.43,148.341 1489.88,148.341C1494.59,148.341 1497.88,146.992 1499.74,144.294C1501.61,141.596 1502.54,137.696 1502.54,132.594L1502.54,38.704" style="fill:none;fill-rule:nonzero;stroke:rgb(35,31,32);stroke-width:1.67px;"/>
    <path d="M1543.01,120.38L1543.01,10.743L1543.01,120.38ZM1583.92,120.38L1543.01,75.936L1580.68,38.704" style="fill:none;fill-rule:nonzero;stroke:rgb(35,31,32);stroke-width:1.67px;"/>
    <path d="M1637.19,119.791C1636.7,119.987 1636.06,120.134 1635.28,120.232C1634.49,120.331 1633.61,120.38 1632.63,120.38C1624.19,120.38 1619.97,115.131 1619.97,104.633L1619.97,10.743" style="fill:none;fill-rule:nonzero;stroke:rgb(35,31,32);stroke-width:1.67px;"/>
    <path d="M1665.89,38.704L1665.89,120.38L1665.89,38.704ZM1714.89,120.38L1714.89,59.307C1714.89,52.832 1713.45,47.779 1710.55,44.149C1707.66,40.519 1703.37,38.704 1697.68,38.704C1694.44,38.704 1691.37,39.293 1688.48,40.47C1685.58,41.647 1682.84,43.192 1680.24,45.106C1677.64,47.019 1675.16,49.226 1672.81,51.728C1670.45,54.23 1668.15,56.756 1665.89,59.307M1763.9,120.38L1763.9,59.307C1763.9,52.832 1762.45,47.779 1759.56,44.149C1756.66,40.519 1752.37,38.704 1746.68,38.704C1743.44,38.704 1740.38,39.293 1737.48,40.47C1734.59,41.647 1731.84,43.192 1729.24,45.106C1726.64,47.019 1724.17,49.226 1721.81,51.728C1719.46,54.23 1717.15,56.756 1714.89,59.307" style="fill:none;fill-rule:nonzero;stroke:rgb(35,31,32);stroke-width:1.67px;"/>
    <path d="M1804.37,38.704L1804.37,120.38L1804.37,38.704ZM1853.38,120.38L1853.38,59.307C1853.38,52.832 1851.93,47.779 1849.03,44.149C1846.14,40.519 1841.85,38.704 1836.16,38.704C1832.92,38.704 1829.85,39.293 1826.96,40.47C1824.07,41.647 1821.32,43.192 1818.72,45.106C1816.12,47.019 1813.64,49.226 1811.29,51.728C1808.93,54.23 1806.63,56.756 1804.37,59.307" style="fill:none;fill-rule:nonzero;stroke:rgb(35,31,32);stroke-width:1.67px;"/>
    <path d="M1916.65,38.704C1910.67,38.704 1905.72,40.102 1901.79,42.898C1897.87,45.694 1894.78,49.153 1892.52,53.273C1890.26,57.394 1888.69,61.858 1887.81,66.665C1886.93,71.472 1886.49,75.887 1886.49,79.91C1886.49,84.913 1887.08,89.819 1888.25,94.626C1889.43,99.433 1891.25,103.75 1893.7,107.576C1896.15,111.403 1899.29,114.493 1903.12,116.848C1906.94,119.202 1911.51,120.38 1916.8,120.38C1922.1,120.38 1926.66,119.202 1930.49,116.848C1934.32,114.493 1937.45,111.403 1939.91,107.576C1942.36,103.75 1944.17,99.433 1945.35,94.626C1946.53,89.819 1947.12,84.913 1947.12,79.91C1947.12,75.887 1946.68,71.472 1945.79,66.665C1944.91,61.858 1943.34,57.394 1941.08,53.273C1938.83,49.153 1935.76,45.694 1931.89,42.898C1928.01,40.102 1923.03,38.704 1916.95,38.704L1916.65,38.704Z" style="fill:none;fill-rule:nonzero;stroke:rgb(35,31,32);stroke-width:1.67px;"/>
    <path d="M1980.97,38.704L1980.97,148.341L1980.97,38.704ZM1980.97,100.218C1984.11,106.497 1988.05,111.427 1992.81,115.008C1997.57,118.589 2003.09,120.38 2009.37,120.38C2014.37,120.38 2018.64,119.251 2022.17,116.995C2025.7,114.738 2028.6,111.722 2030.85,107.944C2033.11,104.167 2034.75,99.801 2035.78,94.847C2036.81,89.892 2037.33,84.717 2037.33,79.321C2037.33,73.14 2036.72,67.548 2035.49,62.544C2034.26,57.541 2032.47,53.273 2030.12,49.741C2027.76,46.209 2024.87,43.487 2021.44,41.574C2018,39.661 2014.03,38.704 2009.52,38.704C2004.12,38.704 1999.02,40.225 1994.21,43.266C1989.4,46.307 1984.99,51.36 1980.97,58.424L1980.97,100.218Z" style="fill:none;fill-rule:nonzero;stroke:rgb(35,31,32);stroke-width:1.67px;"/>
    <path d="M2120.18,38.704L2120.18,148.341L2120.18,38.704ZM2120.18,100.218C2117.04,106.497 2113.09,111.427 2108.34,115.008C2103.58,118.589 2098.06,120.38 2091.78,120.38C2086.78,120.38 2082.51,119.251 2078.98,116.995C2075.45,114.738 2072.55,111.722 2070.29,107.944C2068.04,104.167 2066.39,99.801 2065.36,94.847C2064.33,89.892 2063.82,84.717 2063.82,79.321C2063.82,73.14 2064.43,67.548 2065.66,62.544C2066.89,57.541 2068.68,53.273 2071.03,49.741C2073.38,46.209 2076.28,43.487 2079.71,41.574C2083.15,39.661 2087.12,38.704 2091.63,38.704C2097.03,38.704 2102.13,40.225 2106.94,43.266C2111.74,46.307 2116.16,51.36 2120.18,58.424L2120.18,100.218Z" style="fill:none;fill-rule:nonzero;stroke:rgb(35,31,32);stroke-width:1.67px;"/>
    <path d="M2161.39,38.704L2161.39,120.38L2161.39,38.704ZM2161.39,59.307C2166.69,53.224 2171.74,48.27 2176.55,44.443C2181.35,40.617 2186.01,38.704 2190.53,38.704" style="fill:none;fill-rule:nonzero;stroke:rgb(35,31,32);stroke-width:1.67px;"/>
    <path d="M2209.07,103.014C2210.84,108.508 2214.12,112.776 2218.93,115.818C2223.74,118.859 2229.28,120.38 2235.56,120.38C2238.5,120.38 2241.45,119.987 2244.39,119.202C2247.33,118.417 2249.96,117.216 2252.26,115.597C2254.57,113.978 2256.43,111.918 2257.85,109.416C2259.28,106.914 2259.99,103.946 2259.99,100.513C2259.99,96 2258.81,92.37 2256.45,89.622C2254.1,86.875 2251.13,84.619 2247.55,82.853C2243.97,81.087 2240.1,79.542 2235.93,78.217C2231.76,76.893 2227.88,75.372 2224.3,73.655C2220.72,71.938 2217.75,69.829 2215.4,67.327C2213.04,64.825 2211.87,61.416 2211.87,57.099C2211.87,53.862 2212.58,51.09 2214,48.785C2215.42,46.479 2217.24,44.566 2219.44,43.045C2221.65,41.525 2224.1,40.421 2226.8,39.734C2229.5,39.047 2232.17,38.704 2234.82,38.704C2240.02,38.704 2244.53,39.906 2248.36,42.309C2252.19,44.713 2255.03,48.073 2256.9,52.39" style="fill:none;fill-rule:nonzero;stroke:rgb(35,31,32);stroke-width:1.67px;"/>
    <path d="M2320.62,116.406C2319.24,117.584 2317.58,118.54 2315.62,119.276C2313.65,120.012 2311.4,120.38 2308.85,120.38C2304.24,120.38 2300.7,119.031 2298.25,116.333C2295.8,113.635 2294.57,109.244 2294.57,103.162L2294.57,23.252M2279.85,46.651L2318.56,46.651L2279.85,46.651Z" style="fill:none;fill-rule:nonzero;stroke:rgb(35,31,32);stroke-width:1.67px;"/>
    <path d="M2397.59,99.777C2396.11,102.229 2394.35,104.707 2392.29,107.208C2390.23,109.71 2387.95,111.918 2385.44,113.831C2382.94,115.744 2380.22,117.314 2377.28,118.54C2374.33,119.766 2371.24,120.38 2368.01,120.38C2362.32,120.38 2357.78,118.491 2354.39,114.714C2351.01,110.937 2349.32,105.467 2349.32,98.305L2349.32,38.704M2397.59,38.704L2397.59,120.38L2397.59,38.704Z" style="fill:none;fill-rule:nonzero;stroke:rgb(35,31,32);stroke-width:1.67px;"/>
    <path d="M2427.02,38.704L2457.78,119.644L2458.36,119.644L2488.68,38.704" style="fill:none;fill-rule:nonzero;stroke:rgb(35,31,32);stroke-width:1.67px;"/>
    <path d="M2507.81,38.704L2532.39,119.644L2532.97,119.644L2557.55,40.176L2558.14,40.176L2583.45,119.644L2584.04,119.644L2607.44,38.704" style="fill:none;fill-rule:nonzero;stroke:rgb(35,31,32);stroke-width:1.67px;"/>
    <path d="M2628.04,120.38L2685.14,38.704L2628.04,120.38ZM2686.91,120.38L2631.72,38.704L2686.91,120.38Z" style="fill:none;fill-rule:nonzero;stroke:rgb(35,31,32);stroke-width:1.67px;"/>
    <path d="M2738.56,120.38L2707.51,38.704L2738.56,120.38ZM2711.93,146.133C2714.28,147.605 2716.73,148.341 2719.28,148.341C2723.6,148.341 2727.11,146.207 2729.81,141.939C2732.5,137.671 2735.23,131.319 2737.97,122.881L2769.17,38.704" style="fill:none;fill-rule:nonzero;stroke:rgb(35,31,32);stroke-width:1.67px;"/>
    <path d="M2844.23,117.951L2791.25,117.951L2791.25,117.363L2842.02,39.808L2842.02,39.219L2791.69,39.219" style="fill:none;fill-rule:nonzero;stroke:rgb(35,31,32);stroke-width:1.67px;"/>
    <path d="M2878.81,89.034L2932.82,89.034L2878.81,89.034ZM2945.18,120.38L2906.33,21.044L2905.74,21.044L2866.3,120.38" style="fill:none;fill-rule:nonzero;stroke:rgb(35,31,32);stroke-width:1.67px;"/>
    <path d="M2976.08,118.908L2999.93,118.908C3006.3,118.908 3011.67,118.246 3016.04,116.921C3020.41,115.597 3023.91,113.806 3026.56,111.55C3029.21,109.293 3031.12,106.595 3032.3,103.456C3033.48,100.316 3034.07,96.932 3034.07,93.302C3034.07,85.649 3031.49,79.517 3026.34,74.906C3021.19,70.295 3012.78,67.989 3001.1,67.989L2976.08,67.989L2976.08,118.908ZM3004.05,67.989C3007.68,67.989 3011.11,67.548 3014.35,66.665C3017.58,65.782 3020.45,64.384 3022.96,62.471C3025.46,60.558 3027.44,58.13 3028.92,55.186C3030.39,52.243 3031.12,48.711 3031.12,44.59C3031.12,41.745 3030.66,38.949 3029.72,36.202C3028.79,33.455 3027.15,31.002 3024.8,28.844C3022.44,26.686 3019.25,24.969 3015.23,23.693C3011.21,22.418 3006.06,21.78 2999.78,21.78L2976.08,21.78L2976.08,118.908" style="fill:none;fill-rule:nonzero;stroke:rgb(35,31,32);stroke-width:1.67px;"/>
    <path d="M3132.08,41.353C3126.58,27.323 3116.38,20.309 3101.47,20.309C3095.19,20.309 3089.64,21.51 3084.84,23.914C3080.03,26.318 3075.98,29.702 3072.7,34.068C3069.41,38.434 3066.93,43.683 3065.26,49.815C3063.6,55.947 3062.76,62.741 3062.76,70.197C3062.76,78.438 3063.74,85.698 3065.71,91.977C3067.67,98.256 3070.39,103.48 3073.87,107.65C3077.36,111.82 3081.45,114.984 3086.16,117.142C3090.87,119.3 3095.97,120.38 3101.47,120.38C3105.78,120.38 3109.71,119.766 3113.24,118.54C3116.77,117.314 3119.91,115.67 3122.66,113.61C3125.41,111.55 3127.76,109.171 3129.72,106.473C3131.68,103.775 3133.16,100.905 3134.14,97.864" style="fill:none;fill-rule:nonzero;stroke:rgb(35,31,32);stroke-width:1.67px;"/>
    <path d="M3167.25,118.908L3167.25,21.78L3188.88,21.78C3196.14,21.78 3202.69,22.908 3208.53,25.165C3214.37,27.421 3219.35,30.659 3223.47,34.878C3227.59,39.096 3230.73,44.198 3232.88,50.183C3235.04,56.167 3236.12,62.937 3236.12,70.491C3236.12,79.125 3234.68,86.508 3231.78,92.639C3228.89,98.771 3225.09,103.799 3220.38,107.724C3215.67,111.648 3210.25,114.493 3204.11,116.259C3197.98,118.025 3191.58,118.908 3184.91,118.908L3167.25,118.908Z" style="fill:none;fill-rule:nonzero;stroke:rgb(35,31,32);stroke-width:1.67px;"/>
    <path d="M3322.36,118.908L3269.23,118.908L3269.23,21.78L3322.36,21.78M3269.23,67.989L3319.86,67.989L3269.23,67.989Z" style="fill:none;fill-rule:nonzero;stroke:rgb(35,31,32);stroke-width:1.67px;"/>
    <path d="M3354.74,120.38L3354.74,21.78L3404.92,21.78M3354.74,69.314L3402.42,69.314L3354.74,69.314Z" style="fill:none;fill-rule:nonzero;stroke:rgb(35,31,32);stroke-width:1.67px;"/>
    <path d="M3496.31,41.353C3490.81,27.323 3480.61,20.309 3465.7,20.309C3459.71,20.309 3454.34,21.412 3449.58,23.62C3444.82,25.827 3440.78,29.065 3437.44,33.332C3434.11,37.6 3431.53,42.849 3429.72,49.079C3427.9,55.309 3426.99,62.397 3426.99,70.344C3426.99,77.212 3427.7,83.687 3429.13,89.77C3430.55,95.852 3432.83,101.175 3435.97,105.737C3439.11,110.299 3443.18,113.88 3448.18,116.48C3453.19,119.08 3459.27,120.38 3466.43,120.38C3472.32,120.38 3477.69,119.546 3482.55,117.878C3487.4,116.21 3491.7,114.248 3495.42,111.991L3495.42,71.227L3469.38,71.227" style="fill:none;fill-rule:nonzero;stroke:rgb(35,31,32);stroke-width:1.67px;"/>
    <path d="M3533.1,20.309L3533.1,120.38L3533.1,20.309ZM3533.1,66.665L3595.79,66.665L3533.1,66.665ZM3595.79,120.38L3595.79,20.309L3595.79,120.38Z" style="fill:none;fill-rule:nonzero;stroke:rgb(35,31,32);stroke-width:1.67px;"/>
    <path d="M3636.99,120.38L3636.99,20.309L3636.99,120.38ZM3637.14,20.309L3636.85,20.309L3637.14,20.309Z" style="fill:none;fill-rule:nonzero;stroke:rgb(35,31,32);stroke-width:1.67px;"/>
    <path d="M3664.96,116.112C3666.62,117.78 3668.49,118.908 3670.55,119.497C3672.61,120.085 3674.57,120.38 3676.43,120.38C3678.49,120.38 3680.46,120.036 3682.32,119.349C3684.18,118.663 3685.8,117.51 3687.18,115.891C3688.55,114.272 3689.63,112.188 3690.41,109.637C3691.2,107.086 3691.59,103.897 3691.59,100.071L3691.59,20.309" style="fill:none;fill-rule:nonzero;stroke:rgb(35,31,32);stroke-width:1.67px;"/>
    <path d="M3731.33,120.38L3731.33,20.309L3731.33,120.38ZM3788.28,120.38L3738.83,67.548L3784.75,20.309" style="fill:none;fill-rule:nonzero;stroke:rgb(35,31,32);stroke-width:1.67px;"/>
    <path d="M3863.04,118.908L3816.24,118.908L3816.24,20.309" style="fill:none;fill-rule:nonzero;stroke:rgb(35,31,32);stroke-width:1.67px;"/>
    <path d="M3973.7,120.38L3973.7,21.044L3973.12,21.044L3931.17,115.965L3930.59,115.965L3888.64,21.044L3888.06,21.044L3888.06,120.38" style="fill:none;fill-rule:nonzero;stroke:rgb(35,31,32);stroke-width:1.67px;"/>
    <path d="M4014.91,120.38L4014.91,21.044L4015.5,21.044L4082.02,119.644L4082.61,119.644L4082.46,20.309" style="fill:none;fill-rule:nonzero;stroke:rgb(35,31,32);stroke-width:1.67px;"/>
    <path d="M4155.75,20.309C4148.78,20.309 4142.87,21.805 4138.01,24.797C4133.16,27.789 4129.18,31.665 4126.09,36.423C4123,41.181 4120.74,46.528 4119.32,52.464C4117.9,58.399 4117.19,64.31 4117.19,70.197C4117.19,73.435 4117.43,76.942 4117.93,80.719C4118.41,84.496 4119.23,88.249 4120.35,91.977C4121.48,95.705 4123,99.286 4124.91,102.72C4126.83,106.154 4129.21,109.171 4132.05,111.771C4134.9,114.37 4138.28,116.455 4142.21,118.025C4146.13,119.595 4150.69,120.38 4155.89,120.38C4161.09,120.38 4165.65,119.595 4169.58,118.025C4173.5,116.455 4176.89,114.37 4179.73,111.771C4182.58,109.171 4184.96,106.154 4186.87,102.72C4188.78,99.286 4190.3,95.705 4191.43,91.977C4192.56,88.249 4193.37,84.496 4193.86,80.719C4194.35,76.942 4194.6,73.435 4194.6,70.197C4194.6,64.31 4193.89,58.399 4192.46,52.464C4191.04,46.528 4188.78,41.181 4185.69,36.423C4182.6,31.665 4178.63,27.789 4173.77,24.797C4168.92,21.805 4163.01,20.309 4156.04,20.309L4155.75,20.309Z" style="fill:none;fill-rule:nonzero;stroke:rgb(35,31,32);stroke-width:1.67px;"/>
    <path d="M4229.18,120.38L4229.18,21.78L4255.23,21.78C4260.43,21.78 4264.94,22.442 4268.77,23.767C4272.59,25.091 4275.78,26.931 4278.33,29.286C4280.88,31.64 4282.77,34.461 4284,37.747C4285.23,41.034 4285.84,44.64 4285.84,48.564C4285.84,56.609 4283.26,62.839 4278.11,67.254C4272.96,71.669 4265.19,73.876 4254.79,73.876L4229.18,73.876L4229.18,120.38Z" style="fill:none;fill-rule:nonzero;stroke:rgb(35,31,32);stroke-width:1.67px;"/>
    <path d="M4383.55,140.688L4358.39,119.349L4383.55,140.688ZM4347.94,20.309C4340.98,20.309 4335.06,21.805 4330.21,24.797C4325.35,27.789 4321.38,31.665 4318.29,36.423C4315.2,41.181 4312.94,46.528 4311.52,52.464C4310.1,58.399 4309.38,64.31 4309.38,70.197C4309.38,73.435 4309.63,76.942 4310.12,80.719C4310.61,84.496 4311.42,88.249 4312.55,91.977C4313.68,95.705 4315.2,99.286 4317.11,102.72C4319.02,106.154 4321.4,109.171 4324.25,111.771C4327.09,114.37 4330.48,116.455 4334.4,118.025C4338.33,119.595 4342.89,120.38 4348.09,120.38C4353.29,120.38 4357.85,119.595 4361.77,118.025C4365.7,116.455 4369.08,114.37 4371.93,111.771C4374.77,109.171 4377.15,106.154 4379.07,102.72C4380.98,99.286 4382.5,95.705 4383.63,91.977C4384.76,88.249 4385.57,84.496 4386.06,80.719C4386.55,76.942 4386.79,73.435 4386.79,70.197C4386.79,64.31 4386.08,58.399 4384.66,52.464C4383.24,46.528 4380.98,41.181 4377.89,36.423C4374.8,31.665 4370.82,27.789 4365.97,24.797C4361.11,21.805 4355.2,20.309 4348.23,20.309L4347.94,20.309Z" style="fill:none;fill-rule:nonzero;stroke:rgb(35,31,32);stroke-width:1.67px;"/>
    <path d="M4421.38,120.38L4421.38,21.78L4446.84,21.78C4451.74,21.78 4455.98,22.418 4459.56,23.693C4463.15,24.969 4466.09,26.71 4468.39,28.918C4470.7,31.125 4472.42,33.676 4473.55,36.57C4474.67,39.464 4475.24,42.53 4475.24,45.768C4475.24,49.594 4474.53,52.979 4473.1,55.922C4471.68,58.865 4469.77,61.367 4467.36,63.427C4464.96,65.488 4462.14,67.057 4458.9,68.137C4455.66,69.216 4452.23,69.755 4448.6,69.755L4421.38,69.755L4421.38,120.38ZM4477.15,120.38L4451.25,69.755L4477.15,120.38Z" style="fill:none;fill-rule:nonzero;stroke:rgb(35,31,32);stroke-width:1.67px;"/>
    <path d="M4503.64,104.339C4505.7,109.244 4509.18,113.144 4514.09,116.038C4518.99,118.933 4524.83,120.38 4531.6,120.38C4536.02,120.38 4539.94,119.742 4543.37,118.466C4546.81,117.191 4549.75,115.474 4552.2,113.316C4554.66,111.157 4556.52,108.607 4557.8,105.663C4559.07,102.72 4559.71,99.63 4559.71,96.392C4559.71,91.487 4558.38,87.415 4555.74,84.177C4553.09,80.94 4549.75,78.119 4545.73,75.716C4541.71,73.312 4537.36,71.129 4532.7,69.167C4528.04,67.205 4523.7,65.071 4519.68,62.765C4515.66,60.46 4512.32,57.762 4509.67,54.671C4507.02,51.581 4505.7,47.681 4505.7,42.972C4505.7,40.028 4506.26,37.208 4507.39,34.51C4508.52,31.812 4510.21,29.408 4512.47,27.299C4514.73,25.189 4517.55,23.497 4520.93,22.222C4524.32,20.946 4528.27,20.309 4532.78,20.309C4539.15,20.309 4544.31,21.559 4548.23,24.061C4552.15,26.563 4555,29.727 4556.77,33.553" style="fill:none;fill-rule:nonzero;stroke:rgb(35,31,32);stroke-width:1.67px;"/>
    <path d="M4607.54,120.38L4607.54,21.78L4607.54,120.38ZM4575.16,21.78L4639.91,21.78L4575.16,21.78Z" style="fill:none;fill-rule:nonzero;stroke:rgb(35,31,32);stroke-width:1.67px;"/>
    <path d="M4664.34,20.309L4664.34,84.325C4664.34,90.113 4665.13,95.264 4666.7,99.777C4668.27,104.29 4670.45,108.067 4673.24,111.108C4676.04,114.15 4679.4,116.455 4683.33,118.025C4687.25,119.595 4691.57,120.38 4696.28,120.38C4706.28,120.38 4714.11,117.289 4719.75,111.108C4725.39,104.927 4728.21,96 4728.21,84.325L4728.21,20.309" style="fill:none;fill-rule:nonzero;stroke:rgb(35,31,32);stroke-width:1.67px;"/>
    <path d="M4757.64,20.309L4794.29,119.644L4794.88,119.644L4831.37,20.309" style="fill:none;fill-rule:nonzero;stroke:rgb(35,31,32);stroke-width:1.67px;"/>
    <path d="M4853.45,20.309L4879.2,119.644L4879.79,119.644L4907.9,21.78L4908.49,21.78L4936.59,119.644L4937.18,119.644L4963.82,20.309" style="fill:none;fill-rule:nonzero;stroke:rgb(35,31,32);stroke-width:1.67px;"/>
    <path d="M4985.89,120.38L5051.53,20.309L4985.89,120.38ZM5054.62,120.38L4989.28,20.309L5054.62,120.38Z" style="fill:none;fill-rule:nonzero;stroke:rgb(35,31,32);stroke-width:1.67px;"/>
    <path d="M5105.69,120.38L5105.69,76.819L5105.69,120.38ZM5071.1,20.309L5105.69,76.819L5141,20.309" style="fill:none;fill-rule:nonzero;stroke:rgb(35,31,32);stroke-width:1.67px;"/>
    <path d="M5223.42,119.644L5164.85,119.644L5164.85,119.055L5221.8,23.105L5221.8,22.516L5164.7,22.516" style="fill:none;fill-rule:nonzero;stroke:rgb(35,31,32);stroke-width:1.67px;"/>
    <path d="M5263.3,93.89L5263.3,20.309L5263.3,93.89ZM5263,109.784C5261.34,109.784 5259.94,110.373 5258.81,111.55C5257.68,112.727 5257.12,114.15 5257.12,115.818C5257.12,117.485 5257.7,118.908 5258.88,120.085C5260.06,121.263 5261.48,121.851 5263.15,121.851C5264.82,121.851 5266.22,121.263 5267.34,120.085C5268.47,118.908 5269.04,117.485 5269.04,115.818C5269.04,114.15 5268.5,112.727 5267.42,111.55C5266.34,110.373 5264.97,109.784 5263.3,109.784L5263,109.784Z" style="fill:none;fill-rule:nonzero;stroke:rgb(35,31,32);stroke-width:1.67px;"/>
    <path d="M5367.34,95.215C5364.5,98.943 5361.33,102.058 5357.85,104.56C5354.37,107.061 5350.42,108.312 5346,108.312C5343.55,108.312 5341.44,107.92 5339.68,107.135C5337.91,106.35 5336.44,105.295 5335.26,103.971C5334.08,102.646 5333.22,101.077 5332.68,99.262C5332.15,97.447 5331.88,95.558 5331.88,93.596C5331.88,87.807 5334.2,83.564 5338.86,80.866C5343.53,78.168 5350.96,76.819 5361.16,76.819L5367.34,76.819L5367.34,95.215ZM5334.23,63.28C5336,59.356 5338.2,56.413 5340.85,54.45C5343.5,52.488 5346.94,51.507 5351.15,51.507C5354.19,51.507 5356.75,51.998 5358.81,52.979C5360.87,53.96 5362.53,55.26 5363.81,56.879C5365.09,58.497 5365.99,60.411 5366.53,62.618C5367.07,64.825 5367.34,67.156 5367.34,69.608L5367.34,95.803C5367.34,97.079 5367.51,98.452 5367.86,99.924C5368.2,101.396 5368.81,102.769 5369.7,104.044C5370.58,105.32 5371.76,106.35 5373.23,107.135C5374.7,107.92 5376.52,108.312 5378.67,108.312C5381.71,108.312 5384.58,107.503 5387.28,105.884C5389.98,104.265 5392.36,102.009 5394.42,99.115C5396.48,96.22 5398.1,92.737 5399.28,88.666C5400.45,84.594 5401.04,80.057 5401.04,75.053C5401.04,68.186 5399.84,61.833 5397.44,55.996C5395.03,50.158 5391.72,45.13 5387.5,40.911C5383.28,36.693 5378.31,33.382 5372.57,30.978C5366.83,28.574 5360.62,27.372 5353.95,27.372C5346.98,27.372 5340.36,28.599 5334.08,31.051C5327.8,33.504 5322.31,37.012 5317.6,41.574C5312.89,46.136 5309.14,51.703 5306.34,58.277C5303.55,64.85 5302.15,72.208 5302.15,80.351C5302.15,88.298 5303.42,95.534 5305.97,102.058C5308.53,108.582 5312.13,114.125 5316.79,118.687C5321.45,123.249 5327.04,126.781 5333.57,129.283C5340.09,131.785 5347.33,133.036 5355.27,133.036C5360.67,133.036 5365.48,132.447 5369.7,131.27C5373.91,130.092 5377.74,128.523 5381.18,126.56" style="fill:none;fill-rule:nonzero;stroke:rgb(35,31,32);stroke-width:1.67px;"/>
    <path d="M5423.85,85.502L5491.69,85.502L5423.85,85.502ZM5438.57,120.38L5452.4,20.309L5438.57,120.38ZM5467.27,120.38L5481.1,20.309L5467.27,120.38ZM5428.27,54.598L5496.11,54.598L5428.27,54.598Z" style="fill:none;fill-rule:nonzero;stroke:rgb(35,31,32);stroke-width:1.67px;"/>
    <path d="M5548.06,140.688L5548.06,120.38L5548.06,140.688ZM5548.06,20.309L5548.06,0L5548.06,20.309ZM5518.92,104.339C5520.98,109.244 5524.46,113.144 5529.37,116.038C5534.27,118.933 5540.11,120.38 5546.88,120.38C5551.3,120.38 5555.22,119.742 5558.65,118.466C5562.09,117.191 5565.03,115.474 5567.48,113.316C5569.94,111.157 5571.8,108.607 5573.08,105.663C5574.35,102.72 5574.99,99.63 5574.99,96.392C5574.99,91.487 5573.66,87.415 5571.02,84.177C5568.37,80.94 5565.03,78.119 5561.01,75.716C5556.99,73.312 5552.64,71.129 5547.98,69.167C5543.32,67.205 5538.98,65.071 5534.96,62.765C5530.94,60.46 5527.6,57.762 5524.95,54.671C5522.3,51.581 5520.98,47.681 5520.98,42.972C5520.98,40.028 5521.54,37.208 5522.67,34.51C5523.8,31.812 5525.49,29.408 5527.75,27.299C5530.01,25.189 5532.83,23.497 5536.21,22.222C5539.6,20.946 5543.55,20.309 5548.06,20.309C5554.44,20.309 5559.59,21.559 5563.51,24.061C5567.43,26.563 5570.28,29.727 5572.05,33.553" style="fill:none;fill-rule:nonzero;stroke:rgb(35,31,32);stroke-width:1.67px;"/>
    <path d="M5614.72,20.309C5611.98,20.309 5609.6,20.971 5607.59,22.295C5605.57,23.62 5603.91,25.41 5602.58,27.667C5601.26,29.923 5600.25,32.572 5599.57,35.614C5598.88,38.655 5598.53,41.942 5598.53,45.473C5598.53,49.005 5598.88,52.292 5599.57,55.333C5600.25,58.375 5601.26,60.999 5602.58,63.207C5603.91,65.414 5605.6,67.156 5607.66,68.431C5609.72,69.706 5612.12,70.344 5614.87,70.344C5617.62,70.344 5620,69.706 5622.01,68.431C5624.02,67.156 5625.69,65.414 5627.01,63.207C5628.34,60.999 5629.34,58.375 5630.03,55.333C5630.72,52.292 5631.06,49.005 5631.06,45.473C5631.06,41.942 5630.72,38.655 5630.03,35.614C5629.34,32.572 5628.34,29.923 5627.01,27.667C5625.69,25.41 5624.02,23.62 5622.01,22.295C5620,20.971 5617.67,20.309 5615.02,20.309L5614.72,20.309ZM5667.11,70.344C5664.37,70.344 5661.99,71.006 5659.98,72.331C5657.96,73.655 5656.3,75.446 5654.97,77.702C5653.65,79.959 5652.64,82.608 5651.95,85.649C5651.27,88.69 5650.93,91.977 5650.93,95.509C5650.93,99.041 5651.27,102.328 5651.95,105.369C5652.64,108.41 5653.65,111.035 5654.97,113.242C5656.3,115.45 5657.99,117.191 5660.05,118.466C5662.11,119.742 5664.51,120.38 5667.26,120.38C5670.01,120.38 5672.39,119.742 5674.4,118.466C5676.41,117.191 5678.08,115.45 5679.4,113.242C5680.73,111.035 5681.73,108.41 5682.42,105.369C5683.11,102.328 5683.45,99.041 5683.45,95.509C5683.45,91.977 5683.11,88.69 5682.42,85.649C5681.73,82.608 5680.73,79.959 5679.4,77.702C5678.08,75.446 5676.41,73.655 5674.4,72.331C5672.39,71.006 5670.06,70.344 5667.41,70.344L5667.11,70.344ZM5614.43,120.38L5666.97,20.309L5614.43,120.38Z" style="fill:none;fill-rule:nonzero;stroke:rgb(35,31,32);stroke-width:1.67px;"/>
    <path d="M5749.38,67.254L5726.27,20.309L5725.68,20.309L5702.58,67.254" style="fill:none;fill-rule:nonzero;stroke:rgb(35,31,32);stroke-width:1.67px;"/>
    <path d="M5847.24,120.38L5801.03,69.755C5799.76,68.284 5798.04,66.493 5795.88,64.384C5793.72,62.275 5791.61,59.895 5789.55,57.247C5787.49,54.598 5785.73,51.777 5784.26,48.785C5782.78,45.792 5782.05,42.726 5782.05,39.587C5782.05,37.036 5782.59,34.608 5783.67,32.302C5784.75,29.997 5786.27,27.961 5788.23,26.195C5790.19,24.429 5792.52,23.007 5795.22,21.927C5797.92,20.848 5800.84,20.309 5803.98,20.309C5807.21,20.309 5810.11,20.873 5812.66,22.001C5815.21,23.129 5817.37,24.601 5819.13,26.416C5820.9,28.231 5822.27,30.365 5823.25,32.817C5824.23,35.27 5824.73,37.821 5824.73,40.47C5824.73,44.983 5823.45,48.785 5820.9,51.875C5818.35,54.966 5815.16,57.762 5811.33,60.263C5807.51,62.765 5803.34,65.095 5798.82,67.254C5794.31,69.412 5790.14,71.791 5786.32,74.391C5782.49,76.991 5779.3,80.032 5776.75,83.515C5774.2,86.998 5772.92,91.241 5772.92,96.245C5772.92,99.777 5773.61,103.014 5774.98,105.958C5776.36,108.901 5778.27,111.452 5780.72,113.61C5783.18,115.768 5786.12,117.436 5789.55,118.614C5792.99,119.791 5796.81,120.38 5801.03,120.38C5807.8,120.38 5813.91,118.883 5819.35,115.891C5824.8,112.899 5829.43,108.95 5833.26,104.044C5837.09,99.139 5840.03,93.473 5842.09,87.047C5844.15,80.621 5845.18,74.023 5845.18,67.254" style="fill:none;fill-rule:nonzero;stroke:rgb(35,31,32);stroke-width:1.67px;"/>
    <path d="M5904.93,63.722L5890.8,43.855L5876.67,63.722M5867.84,37.232L5890.8,43.855L5913.76,37.232M5890.8,44.002L5890.8,20.309L5890.8,44.002Z" style="fill:none;fill-rule:nonzero;stroke:rgb(35,31,32);stroke-width:1.67px;"/>
    <path d="M5956.44,137.451C5953.79,133.232 5951.31,128.792 5949,124.132C5946.7,119.472 5944.69,114.542 5942.97,109.342C5941.25,104.143 5939.88,98.698 5938.85,93.007C5937.82,87.317 5937.31,81.381 5937.31,75.2C5937.31,62.839 5938.92,51.654 5942.16,41.647C5945.4,31.64 5950.16,22.025 5956.44,12.803" style="fill:none;fill-rule:nonzero;stroke:rgb(35,31,32);stroke-width:1.67px;"/>
    <path d="M5977.04,137.451C5979.69,133.232 5982.17,128.792 5984.47,124.132C5986.78,119.472 5988.79,114.542 5990.51,109.342C5992.22,104.143 5993.6,98.698 5994.63,93.007C5995.66,87.317 5996.17,81.381 5996.17,75.2C5996.17,62.839 5994.55,51.654 5991.32,41.647C5988.08,31.64 5983.32,22.025 5977.04,12.803" style="fill:none;fill-rule:nonzero;stroke:rgb(35,31,32);stroke-width:1.67px;"/>
    <path d="M6199.4,87.709L6147.31,87.709L6199.4,87.709ZM6199.4,58.277L6147.31,58.277L6199.4,58.277Z" style="fill:none;fill-rule:nonzero;stroke:rgb(35,31,32);stroke-width:1.67px;"/>
    <path d="M6260.62,106.399L6260.62,37.968L6260.62,106.399ZM6226.63,71.521L6295.06,71.521L6226.63,71.521Z" style="fill:none;fill-rule:nonzero;stroke:rgb(35,31,32);stroke-width:1.67px;"/>
    <path d="M6340.68,137.451L6322.28,137.451L6322.28,12.803L6340.68,12.803" style="fill:none;fill-rule:nonzero;stroke:rgb(35,31,32);stroke-width:1.67px;"/>
    <path d="M6361.28,137.451L6379.68,137.451L6379.68,12.803L6361.28,12.803" style="fill:none;fill-rule:nonzero;stroke:rgb(35,31,32);stroke-width:1.67px;"/>
    <path d="M6443.11,138.628L6438.4,138.628C6436.43,138.628 6434.59,138.383 6432.88,137.892C6431.16,137.402 6429.71,136.592 6428.54,135.464C6427.36,134.336 6426.48,132.839 6425.89,130.975C6425.3,129.111 6425.05,126.806 6425.15,124.059L6426.62,99.63C6426.82,96.196 6426.6,93.4 6425.96,91.241C6425.32,89.083 6424.34,87.415 6423.02,86.238C6421.69,85.06 6420.05,84.251 6418.09,83.81C6416.12,83.368 6413.92,83.147 6411.47,83.147L6409.11,83.147L6409.11,70.786L6411.47,70.786C6413.92,70.786 6416.12,70.565 6418.09,70.123C6420.05,69.682 6421.69,68.872 6423.02,67.695C6424.34,66.518 6425.32,64.85 6425.96,62.692C6426.6,60.533 6426.82,57.737 6426.62,54.303L6425.15,29.874C6425.05,27.127 6425.3,24.822 6425.89,22.957C6426.48,21.093 6427.36,19.597 6428.54,18.469C6429.71,17.341 6431.16,16.531 6432.88,16.041C6434.59,15.55 6436.43,15.305 6438.4,15.305L6443.11,15.305" style="fill:none;fill-rule:nonzero;stroke:rgb(35,31,32);stroke-width:1.67px;"/>
    <path d="M6457.82,138.628L6462.53,138.628C6464.5,138.628 6466.34,138.383 6468.05,137.892C6469.77,137.402 6471.22,136.592 6472.39,135.464C6473.57,134.336 6474.45,132.839 6475.04,130.975C6475.63,129.111 6475.88,126.806 6475.78,124.059L6474.31,99.63C6474.11,96.196 6474.33,93.4 6474.97,91.241C6475.61,89.083 6476.59,87.415 6477.91,86.238C6479.24,85.06 6480.88,84.251 6482.84,83.81C6484.8,83.368 6487.01,83.147 6489.46,83.147L6491.82,83.147L6491.82,70.786L6489.46,70.786C6487.01,70.786 6484.8,70.565 6482.84,70.123C6480.88,69.682 6479.24,68.872 6477.91,67.695C6476.59,66.518 6475.61,64.85 6474.97,62.692C6474.33,60.533 6474.11,57.737 6474.31,54.303L6475.78,29.874C6475.88,27.127 6475.63,24.822 6475.04,22.957C6474.45,21.093 6473.57,19.597 6472.39,18.469C6471.22,17.341 6469.77,16.531 6468.05,16.041C6466.34,15.55 6464.5,15.305 6462.53,15.305L6457.82,15.305" style="fill:none;fill-rule:nonzero;stroke:rgb(35,31,32);stroke-width:1.67px;"/>
    <path d="M6527.14,148.341L6527.14,10.743L6527.14,148.341Z" style="fill:none;fill-rule:nonzero;stroke:rgb(35,31,32);stroke-width:1.67px;"/>
    <path d="M6527.28,10.743L6526.99,10.743L6527.28,10.743Z" style="fill:none;fill-rule:nonzero;stroke:rgb(35,31,32);stroke-width:1.67px;"/>
    <path d="M6660.17,121.851L6614.99,18.837L6660.17,121.851Z" style="fill:none;fill-rule:nonzero;stroke:rgb(35,31,32);stroke-width:1.67px;"/>
    <path d="M6691.52,41.647C6689.85,41.647 6688.45,42.236 6687.32,43.413C6686.19,44.59 6685.63,46.013 6685.63,47.681C6685.63,49.349 6686.22,50.771 6687.4,51.949C6688.57,53.126 6690,53.715 6691.66,53.715C6693.33,53.715 6694.73,53.126 6695.86,51.949C6696.99,50.771 6697.55,49.349 6697.55,47.681C6697.55,46.013 6697.01,44.59 6695.93,43.413C6694.85,42.236 6693.48,41.647 6691.81,41.647L6691.52,41.647ZM6683.72,141.277L6695.2,118.466L6695.2,110.52L6687.25,110.52" style="fill:none;fill-rule:nonzero;stroke:rgb(35,31,32);stroke-width:1.67px;"/>
    <path d="M6732.87,109.784C6731.2,109.784 6729.8,110.373 6728.68,111.55C6727.55,112.727 6726.98,114.15 6726.98,115.818C6726.98,117.485 6727.57,118.908 6728.75,120.085C6729.93,121.263 6731.35,121.851 6733.02,121.851C6734.69,121.851 6736.08,121.263 6737.21,120.085C6738.34,118.908 6738.9,117.485 6738.9,115.818C6738.9,114.15 6738.36,112.727 6737.28,111.55C6736.21,110.373 6734.83,109.784 6733.16,109.784L6732.87,109.784ZM6732.87,41.647C6731.2,41.647 6729.8,42.236 6728.68,43.413C6727.55,44.59 6726.98,46.013 6726.98,47.681C6726.98,49.349 6727.57,50.771 6728.75,51.949C6729.93,53.126 6731.35,53.715 6733.02,53.715C6734.69,53.715 6736.08,53.126 6737.21,51.949C6738.34,50.771 6738.9,49.349 6738.9,47.681C6738.9,46.013 6738.36,44.59 6737.28,43.413C6736.21,42.236 6734.83,41.647 6733.16,41.647L6732.87,41.647Z" style="fill:none;fill-rule:nonzero;stroke:rgb(35,31,32);stroke-width:1.67px;"/>
    <path d="M6766.86,41.5L6778.34,18.69L6778.34,10.743L6770.4,10.743" style="fill:none;fill-rule:nonzero;stroke:rgb(35,31,32);stroke-width:1.67px;"/>
    <path d="M6798.95,41.5L6810.43,18.69L6810.43,10.743L6802.48,10.743M6824.7,41.5L6836.18,18.69L6836.18,10.743L6828.23,10.743" style="fill:none;fill-rule:nonzero;stroke:rgb(35,31,32);stroke-width:1.67px;"/>
    <path d="M6858.25,141.277L6869.73,118.466L6869.73,110.52L6861.78,110.52" style="fill:none;fill-rule:nonzero;stroke:rgb(35,31,32);stroke-width:1.67px;"/>
    <path d="M6964.21,113.021L6897.7,78.585L6897.7,77.997L6964.21,43.56" style="fill:none;fill-rule:nonzero;stroke:rgb(35,31,32);stroke-width:1.67px;"/>
    <path d="M7001,109.784C6999.33,109.784 6997.94,110.373 6996.81,111.55C6995.68,112.727 6995.11,114.15 6995.11,115.818C6995.11,117.485 6995.7,118.908 6996.88,120.085C6998.06,121.263 6999.48,121.851 7001.15,121.851C7002.82,121.851 7004.22,121.263 7005.34,120.085C7006.47,118.908 7007.03,117.485 7007.03,115.818C7007.03,114.15 7006.5,112.727 7005.42,111.55C7004.34,110.373 7002.96,109.784 7001.3,109.784L7001,109.784Z" style="fill:none;fill-rule:nonzero;stroke:rgb(35,31,32);stroke-width:1.67px;"/>
    <path d="M7037.94,113.021L7104.46,78.585L7104.46,77.997L7037.94,43.56" style="fill:none;fill-rule:nonzero;stroke:rgb(35,31,32);stroke-width:1.67px;"/>
    <path d="M7126.53,121.851L7171.71,18.837L7126.53,121.851Z" style="fill:none;fill-rule:nonzero;stroke:rgb(35,31,32);stroke-width:1.67px;"/>
    <path d="M7212.18,93.89L7212.18,84.766C7212.18,82.902 7212.35,81.185 7212.7,79.615C7213.04,78.046 7213.65,76.476 7214.54,74.906C7215.42,73.336 7216.6,71.742 7218.07,70.123C7219.54,68.505 7221.35,66.763 7223.51,64.899C7226.46,62.348 7229.18,59.16 7231.68,55.333C7234.18,51.507 7235.43,46.994 7235.43,41.794C7235.43,38.753 7234.92,35.908 7233.89,33.259C7232.86,30.61 7231.39,28.329 7229.47,26.416C7227.56,24.503 7225.2,23.007 7222.41,21.927C7219.61,20.848 7216.45,20.309 7212.92,20.309C7210.46,20.309 7208.04,20.603 7205.63,21.192C7203.23,21.78 7201,22.688 7198.94,23.914C7196.88,25.14 7195.01,26.735 7193.34,28.697C7191.68,30.659 7190.35,33.014 7189.37,35.761M7212.77,109.784C7211.1,109.784 7209.7,110.373 7208.57,111.55C7207.45,112.727 7206.88,114.15 7206.88,115.818C7206.88,117.485 7207.47,118.908 7208.65,120.085C7209.83,121.263 7211.25,121.851 7212.92,121.851C7214.59,121.851 7215.98,121.263 7217.11,120.085C7218.24,118.908 7218.8,117.485 7218.8,115.818C7218.8,114.15 7218.26,112.727 7217.19,111.55C7216.11,110.373 7214.73,109.784 7213.06,109.784L7212.77,109.784Z" style="fill:none;fill-rule:nonzero;stroke:rgb(35,31,32);stroke-width:1.67px;"/>
    <path d="M7266.34,78.585C7268.99,74.465 7271.83,71.669 7274.87,70.197C7277.91,68.725 7280.91,67.989 7283.85,67.989C7286.6,67.989 7289.15,68.529 7291.5,69.608C7293.86,70.687 7296.21,71.889 7298.57,73.214C7300.92,74.538 7303.37,75.765 7305.92,76.893C7308.48,78.021 7311.32,78.585 7314.46,78.585C7317.4,78.585 7320.37,77.898 7323.36,76.525C7326.36,75.151 7329.18,72.404 7331.82,68.284" style="fill:none;fill-rule:nonzero;stroke:rgb(35,31,32);stroke-width:1.67px;"/>
    <path d="M7369.06,20.309C7366.8,20.309 7364.67,20.75 7362.65,21.633C7360.64,22.516 7358.88,23.742 7357.36,25.312C7355.84,26.882 7354.64,28.672 7353.75,30.684C7352.87,32.695 7352.43,34.878 7352.43,37.232C7352.43,39.587 7352.87,41.77 7353.75,43.781C7354.64,45.792 7355.84,47.558 7357.36,49.079C7358.88,50.6 7360.67,51.801 7362.73,52.684C7364.79,53.567 7366.95,54.009 7369.2,54.009C7371.56,54.009 7373.74,53.567 7375.75,52.684C7377.76,51.801 7379.56,50.6 7381.12,49.079C7382.69,47.558 7383.92,45.792 7384.8,43.781C7385.69,41.77 7386.13,39.587 7386.13,37.232C7386.13,34.878 7385.69,32.695 7384.8,30.684C7383.92,28.672 7382.72,26.882 7381.2,25.312C7379.68,23.742 7377.91,22.516 7375.9,21.633C7373.89,20.75 7371.71,20.309 7369.35,20.309L7369.06,20.309Z" style="fill:none;fill-rule:nonzero;stroke:rgb(35,31,32);stroke-width:1.67px;"/>
    <path d="M7473.25,23.546L7453.38,3.973L7473.25,23.546Z" style="fill:none;fill-rule:nonzero;stroke:rgb(35,31,32);stroke-width:1.67px;"/>
</svg>
