<?xml version="1.0" encoding="UTF-8" standalone="no"?>
<!DOCTYPE svg PUBLIC "-//W3C//DTD SVG 1.1//EN" "http://www.w3.org/Graphics/SVG/1.1/DTD/svg11.dtd">
<svg width="100%" height="100%" viewBox="0 0 10000 300" version="1.1" xmlns="http://www.w3.org/2000/svg" xmlns:xlink="http://www.w3.org/1999/xlink" xml:space="preserve" xmlns:serif="http://www.serif.com/" style="fill-rule:evenodd;clip-rule:evenodd;stroke-linejoin:round;stroke-miterlimit:2;">
    <g transform="matrix(1,0,0,1,-610.152,-2947.48)">
        <g transform="matrix(2.94327,0,0,2.94327,-1185.69,-5702.12)">
            <path d="M621.152,2945.67C619.318,2945.67 617.71,2946.12 616.327,2947.02C614.943,2947.92 613.793,2949.15 612.877,2950.7C611.96,2952.25 611.277,2954.07 610.827,2956.15C610.377,2958.23 610.152,2960.46 610.152,2962.82C610.152,2965.22 610.377,2967.45 610.827,2969.5C611.277,2971.55 611.96,2973.33 612.877,2974.85C613.793,2976.37 614.943,2977.55 616.327,2978.4C617.71,2979.25 619.335,2979.67 621.202,2979.67C623.068,2979.67 624.693,2979.25 626.077,2978.4C627.46,2977.55 628.61,2976.37 629.527,2974.85C630.443,2973.33 631.127,2971.55 631.577,2969.5C632.027,2967.45 632.252,2965.22 632.252,2962.82C632.252,2960.46 632.027,2958.23 631.577,2956.15C631.127,2954.07 630.443,2952.25 629.527,2950.7C628.61,2949.15 627.468,2947.92 626.102,2947.02C624.735,2946.12 623.118,2945.67 621.252,2945.67L621.152,2945.67Z" style="fill:none;fill-rule:nonzero;stroke:rgb(35,31,32);stroke-width:0.57px;"/>
        </g>
        <g transform="matrix(2.94327,0,0,2.94327,-1185.69,-5702.12)">
            <path d="M650.152,2979.67L650.152,2946.17L649.952,2946.17L639.252,2953.72" style="fill:none;fill-rule:nonzero;stroke:rgb(35,31,32);stroke-width:0.57px;"/>
        </g>
        <g transform="matrix(2.94327,0,0,2.94327,-1185.69,-5702.12)">
            <path d="M681.402,2979.67L661.402,2979.67L661.402,2979.47L672.552,2967.22C673.518,2966.16 674.452,2965.11 675.352,2964.07C676.252,2963.04 677.06,2961.98 677.777,2960.9C678.493,2959.82 679.068,2958.68 679.502,2957.5C679.935,2956.32 680.152,2955.06 680.152,2953.72C680.152,2952.36 679.927,2951.17 679.477,2950.17C679.027,2949.17 678.418,2948.34 677.652,2947.67C676.885,2947.01 676.002,2946.51 675.002,2946.17C674.002,2945.84 672.952,2945.67 671.852,2945.67C669.652,2945.67 667.702,2946.28 666.002,2947.5C664.302,2948.72 663.085,2950.41 662.352,2952.57" style="fill:none;fill-rule:nonzero;stroke:rgb(35,31,32);stroke-width:0.57px;"/>
        </g>
        <g transform="matrix(2.94327,0,0,2.94327,-1185.69,-5702.12)">
            <path d="M689.152,2973.52C689.618,2975.39 690.693,2976.89 692.377,2978.02C694.06,2979.16 696.118,2979.72 698.552,2979.72C700.018,2979.72 701.352,2979.51 702.552,2979.07C703.752,2978.64 704.768,2978.03 705.602,2977.25C706.435,2976.47 707.077,2975.53 707.527,2974.45C707.977,2973.37 708.202,2972.19 708.202,2970.92C708.202,2969.82 708.018,2968.72 707.652,2967.62C707.285,2966.52 706.685,2965.53 705.852,2964.65C705.018,2963.77 703.952,2963.06 702.652,2962.52C701.352,2961.99 699.752,2961.72 697.852,2961.72L696.302,2961.72M697.852,2961.72C699.518,2961.72 700.968,2961.5 702.202,2961.05C703.435,2960.6 704.46,2959.99 705.277,2959.22C706.093,2958.46 706.702,2957.57 707.102,2956.57C707.502,2955.57 707.702,2954.51 707.702,2953.37C707.702,2952.34 707.527,2951.36 707.177,2950.42C706.827,2949.49 706.302,2948.67 705.602,2947.97C704.902,2947.27 704.01,2946.72 702.927,2946.3C701.843,2945.88 700.552,2945.67 699.052,2945.67C697.852,2945.67 696.768,2945.82 695.802,2946.1C694.835,2946.38 693.977,2946.76 693.227,2947.22C692.477,2947.69 691.827,2948.22 691.277,2948.82C690.727,2949.42 690.268,2950.06 689.902,2950.72" style="fill:none;fill-rule:nonzero;stroke:rgb(35,31,32);stroke-width:0.57px;"/>
        </g>
        <g transform="matrix(2.94327,0,0,2.94327,-1185.69,-5702.12)">
            <path d="M732.952,2979.67L732.952,2946.17L732.452,2946.17L716.952,2971.47L716.952,2971.67L739.152,2971.67" style="fill:none;fill-rule:nonzero;stroke:rgb(35,31,32);stroke-width:0.57px;"/>
        </g>
        <g transform="matrix(2.94327,0,0,2.94327,-1185.69,-5702.12)">
            <path d="M746.902,2972.77C747.702,2975.01 748.885,2976.72 750.452,2977.9C752.018,2979.08 753.852,2979.67 755.952,2979.67C757.318,2979.67 758.585,2979.42 759.752,2978.92C760.918,2978.42 761.927,2977.72 762.777,2976.8C763.627,2975.88 764.293,2974.78 764.777,2973.5C765.26,2972.22 765.502,2970.81 765.502,2969.27C765.502,2967.81 765.277,2966.44 764.827,2965.17C764.377,2963.91 763.735,2962.82 762.902,2961.9C762.068,2960.98 761.06,2960.26 759.877,2959.72C758.693,2959.19 757.352,2958.92 755.852,2958.92C754.685,2958.92 753.435,2959.08 752.102,2959.4C750.768,2959.72 749.568,2960.21 748.502,2960.87L749.002,2946.17L764.602,2946.17" style="fill:none;fill-rule:nonzero;stroke:rgb(35,31,32);stroke-width:0.57px;"/>
        </g>
        <g transform="matrix(2.94327,0,0,2.94327,-1185.69,-5702.12)">
            <path d="M788.052,2945.67L780.102,2956.27C779.068,2957.64 778.202,2958.91 777.502,2960.07C776.802,2961.24 776.235,2962.35 775.802,2963.4C775.368,2964.45 775.052,2965.47 774.852,2966.45C774.652,2967.43 774.552,2968.42 774.552,2969.42C774.552,2970.66 774.735,2971.89 775.102,2973.12C775.468,2974.36 776.052,2975.46 776.852,2976.42C777.652,2977.39 778.693,2978.17 779.977,2978.77C781.26,2979.37 782.818,2979.67 784.652,2979.67C786.252,2979.67 787.677,2979.42 788.927,2978.92C790.177,2978.42 791.227,2977.73 792.077,2976.85C792.927,2975.97 793.568,2974.92 794.002,2973.72C794.435,2972.52 794.652,2971.21 794.652,2969.77C794.652,2968.21 794.385,2966.79 793.852,2965.52C793.318,2964.26 792.61,2963.19 791.727,2962.32C790.843,2961.46 789.818,2960.79 788.652,2960.32C787.485,2959.86 786.252,2959.62 784.952,2959.62C783.218,2959.62 781.468,2960.04 779.702,2960.87C777.935,2961.71 776.468,2963.02 775.302,2964.82" style="fill:none;fill-rule:nonzero;stroke:rgb(35,31,32);stroke-width:0.57px;"/>
        </g>
        <g transform="matrix(2.94327,0,0,2.94327,-1185.69,-5702.12)">
            <path d="M804.702,2979.67L820.652,2946.37L820.652,2946.17L800.402,2946.17" style="fill:none;fill-rule:nonzero;stroke:rgb(35,31,32);stroke-width:0.57px;"/>
        </g>
        <g transform="matrix(2.94327,0,0,2.94327,-1185.69,-5702.12)">
            <path d="M836.052,2945.67C837.285,2945.67 838.418,2945.86 839.452,2946.22C840.485,2946.59 841.368,2947.09 842.102,2947.72C842.835,2948.36 843.41,2949.12 843.827,2950C844.243,2950.88 844.452,2951.82 844.452,2952.82C844.452,2954.36 844.01,2955.64 843.127,2956.67C842.243,2957.71 841.143,2958.63 839.827,2959.45C838.51,2960.27 837.085,2961.03 835.552,2961.75C834.018,2962.47 832.593,2963.27 831.277,2964.15C829.96,2965.03 828.86,2966.06 827.977,2967.22C827.093,2968.39 826.652,2969.84 826.652,2971.57C826.652,2972.87 826.91,2974.03 827.427,2975.05C827.943,2976.07 828.643,2976.92 829.527,2977.6C830.41,2978.28 831.418,2978.8 832.552,2979.15C833.685,2979.5 834.852,2979.67 836.052,2979.67C837.252,2979.67 838.427,2979.5 839.577,2979.15C840.727,2978.8 841.743,2978.28 842.627,2977.6C843.51,2976.92 844.227,2976.07 844.777,2975.07C845.327,2974.07 845.602,2972.91 845.602,2971.57C845.602,2969.84 845.16,2968.4 844.277,2967.25C843.393,2966.1 842.293,2965.09 840.977,2964.22C839.66,2963.36 838.227,2962.57 836.677,2961.85C835.127,2961.13 833.693,2960.37 832.377,2959.55C831.06,2958.73 829.96,2957.8 829.077,2956.75C828.193,2955.7 827.752,2954.39 827.752,2952.82C827.752,2951.92 827.918,2951.04 828.252,2950.17C828.585,2949.31 829.093,2948.54 829.777,2947.87C830.46,2947.21 831.318,2946.67 832.352,2946.27C833.385,2945.87 834.585,2945.67 835.952,2945.67L836.052,2945.67Z" style="fill:none;fill-rule:nonzero;stroke:rgb(35,31,32);stroke-width:0.57px;"/>
        </g>
        <g transform="matrix(2.94327,0,0,2.94327,-1185.69,-5702.12)">
            <path d="M859.453,2979.67L867.402,2969.07C868.436,2967.71 869.302,2966.44 870.002,2965.27C870.702,2964.11 871.269,2963 871.702,2961.95C872.135,2960.9 872.452,2959.88 872.652,2958.9C872.852,2957.91 872.952,2956.92 872.952,2955.92C872.952,2954.69 872.769,2953.46 872.402,2952.22C872.035,2950.99 871.452,2949.89 870.652,2948.92C869.852,2947.96 868.811,2947.17 867.527,2946.57C866.244,2945.97 864.686,2945.67 862.853,2945.67C861.253,2945.67 859.828,2945.92 858.578,2946.42C857.328,2946.92 856.278,2947.62 855.428,2948.5C854.578,2949.38 853.936,2950.42 853.503,2951.62C853.07,2952.82 852.853,2954.14 852.853,2955.57C852.853,2957.14 853.12,2958.56 853.653,2959.82C854.186,2961.09 854.895,2962.16 855.778,2963.02C856.661,2963.89 857.686,2964.56 858.853,2965.02C860.019,2965.49 861.253,2965.72 862.553,2965.72C864.286,2965.72 866.036,2965.31 867.802,2964.47C869.569,2963.64 871.035,2962.32 872.202,2960.52" style="fill:none;fill-rule:nonzero;stroke:rgb(35,31,32);stroke-width:0.57px;"/>
        </g>
        <g transform="matrix(2.94327,0,0,2.94327,-1185.69,-5702.12)">
            <path d="M899.302,2964.27L896.252,2964.27C891.218,2964.27 887.577,2964.95 885.327,2966.3C883.077,2967.65 881.952,2969.76 881.952,2972.62C881.952,2973.52 882.093,2974.4 882.377,2975.25C882.66,2976.1 883.085,2976.85 883.652,2977.5C884.218,2978.15 884.935,2978.67 885.802,2979.07C886.668,2979.47 887.702,2979.67 888.902,2979.67C891.068,2979.67 892.993,2979.05 894.677,2977.8C896.36,2976.55 897.902,2975.01 899.302,2973.17L899.302,2964.27ZM899.502,2979.67C899.435,2978.74 899.385,2977.62 899.352,2976.3C899.318,2974.98 899.302,2973.81 899.302,2972.77L899.302,2960.77C899.302,2959.57 899.168,2958.43 898.902,2957.35C898.635,2956.27 898.202,2955.32 897.602,2954.52C897.002,2953.72 896.21,2953.09 895.227,2952.62C894.243,2952.16 893.018,2951.92 891.552,2951.92C889.418,2951.92 887.693,2952.41 886.377,2953.37C885.06,2954.34 883.985,2955.77 883.152,2957.67" style="fill:none;fill-rule:nonzero;stroke:rgb(35,31,32);stroke-width:0.57px;"/>
        </g>
        <g transform="matrix(2.94327,0,0,2.94327,-1185.69,-5702.12)">
            <path d="M912.402,2979.67L912.402,2942.42L912.402,2979.67ZM912.402,2972.82C913.468,2974.96 914.81,2976.63 916.427,2977.85C918.043,2979.07 919.918,2979.67 922.052,2979.67C923.752,2979.67 925.202,2979.29 926.402,2978.52C927.602,2977.76 928.585,2976.73 929.352,2975.45C930.118,2974.17 930.677,2972.68 931.027,2971C931.377,2969.32 931.552,2967.56 931.552,2965.72C931.552,2963.62 931.343,2961.72 930.927,2960.02C930.51,2958.32 929.902,2956.87 929.102,2955.67C928.302,2954.47 927.318,2953.55 926.152,2952.9C924.985,2952.25 923.635,2951.92 922.102,2951.92C920.268,2951.92 918.535,2952.44 916.902,2953.47C915.268,2954.51 913.768,2956.22 912.402,2958.62L912.402,2972.82Z" style="fill:none;fill-rule:nonzero;stroke:rgb(35,31,32);stroke-width:0.57px;"/>
        </g>
        <g transform="matrix(2.94327,0,0,2.94327,-1185.69,-5702.12)">
            <path d="M958.302,2957.17C958.035,2956.51 957.668,2955.86 957.202,2955.22C956.735,2954.59 956.177,2954.03 955.527,2953.55C954.877,2953.07 954.135,2952.67 953.302,2952.37C952.468,2952.07 951.535,2951.92 950.502,2951.92C948.935,2951.92 947.535,2952.27 946.302,2952.95C945.068,2953.63 944.027,2954.6 943.177,2955.85C942.327,2957.1 941.677,2958.6 941.227,2960.35C940.777,2962.1 940.552,2964.02 940.552,2966.12C940.552,2968.16 940.768,2970.02 941.202,2971.7C941.635,2973.38 942.277,2974.81 943.127,2975.97C943.977,2977.14 945.018,2978.05 946.252,2978.7C947.485,2979.35 948.918,2979.67 950.552,2979.67C952.518,2979.67 954.093,2979.23 955.277,2978.35C956.46,2977.47 957.485,2976.27 958.352,2974.77" style="fill:none;fill-rule:nonzero;stroke:rgb(35,31,32);stroke-width:0.57px;"/>
        </g>
        <g transform="matrix(2.94327,0,0,2.94327,-1185.69,-5702.12)">
            <path d="M986.252,2979.67L986.252,2942.42L986.252,2979.67ZM986.252,2972.82C985.185,2974.96 983.843,2976.63 982.227,2977.85C980.61,2979.07 978.735,2979.67 976.602,2979.67C974.902,2979.67 973.452,2979.29 972.252,2978.52C971.052,2977.76 970.068,2976.73 969.302,2975.45C968.535,2974.17 967.977,2972.68 967.627,2971C967.277,2969.32 967.102,2967.56 967.102,2965.72C967.102,2963.62 967.31,2961.72 967.727,2960.02C968.143,2958.32 968.752,2956.87 969.552,2955.67C970.352,2954.47 971.335,2953.55 972.502,2952.9C973.668,2952.25 975.018,2951.92 976.552,2951.92C978.385,2951.92 980.118,2952.44 981.752,2953.47C983.385,2954.51 984.885,2956.22 986.252,2958.62L986.252,2972.82Z" style="fill:none;fill-rule:nonzero;stroke:rgb(35,31,32);stroke-width:0.57px;"/>
        </g>
        <g transform="matrix(2.94327,0,0,2.94327,-1185.69,-5702.12)">
            <path d="M997.852,2964.42L1017.05,2964.42C1017.05,2963.02 1016.92,2961.58 1016.65,2960.1C1016.38,2958.62 1015.91,2957.27 1015.23,2956.07C1014.54,2954.87 1013.61,2953.88 1012.43,2953.1C1011.24,2952.32 1009.75,2951.92 1007.95,2951.92C1006.38,2951.92 1004.98,2952.24 1003.73,2952.87C1002.48,2953.51 1001.41,2954.42 1000.53,2955.62C999.643,2956.82 998.96,2958.29 998.477,2960.02C997.993,2961.76 997.752,2963.72 997.752,2965.92C997.752,2967.92 997.952,2969.76 998.352,2971.42C998.752,2973.09 999.377,2974.54 1000.23,2975.77C1001.08,2977.01 1002.15,2977.97 1003.45,2978.65C1004.75,2979.33 1006.3,2979.67 1008.1,2979.67C1009.27,2979.67 1010.31,2979.52 1011.23,2979.22C1012.14,2978.92 1012.95,2978.52 1013.65,2978.02C1014.35,2977.52 1014.95,2976.94 1015.45,2976.27C1015.95,2975.61 1016.35,2974.91 1016.65,2974.17" style="fill:none;fill-rule:nonzero;stroke:rgb(35,31,32);stroke-width:0.57px;"/>
        </g>
        <g transform="matrix(2.94327,0,0,2.94327,-1185.69,-5702.12)">
            <path d="M1028.8,2979.67L1028.8,2948.72C1028.8,2946.79 1029.25,2945.26 1030.15,2944.12C1031.05,2942.99 1032.4,2942.42 1034.2,2942.42C1035.6,2942.42 1036.77,2942.77 1037.7,2943.47M1023.8,2954.67L1036.15,2954.67L1023.8,2954.67Z" style="fill:none;fill-rule:nonzero;stroke:rgb(35,31,32);stroke-width:0.57px;"/>
        </g>
        <g transform="matrix(2.94327,0,0,2.94327,-1185.69,-5702.12)">
            <path d="M1061.6,2958.62C1060.24,2956.22 1058.74,2954.51 1057.1,2953.47C1055.47,2952.44 1053.75,2951.92 1051.95,2951.92C1050.42,2951.92 1049.06,2952.25 1047.88,2952.9C1046.69,2953.55 1045.7,2954.46 1044.9,2955.62C1044.1,2956.79 1043.49,2958.19 1043.08,2959.82C1042.66,2961.46 1042.45,2963.26 1042.45,2965.22C1042.45,2966.99 1042.63,2968.69 1042.98,2970.32C1043.33,2971.96 1043.88,2973.39 1044.65,2974.62C1045.42,2975.86 1046.4,2976.84 1047.6,2977.57C1048.8,2978.31 1050.25,2978.67 1051.95,2978.67C1054.09,2978.67 1055.96,2978.12 1057.58,2977C1059.19,2975.88 1060.54,2974.32 1061.6,2972.32L1061.6,2958.62ZM1044.3,2985.02C1045.17,2986.46 1046.29,2987.51 1047.68,2988.17C1049.06,2988.84 1050.68,2989.17 1052.55,2989.17C1055.45,2989.17 1057.68,2988.39 1059.25,2986.82C1060.82,2985.26 1061.6,2982.91 1061.6,2979.77L1061.6,2951.92" style="fill:none;fill-rule:nonzero;stroke:rgb(35,31,32);stroke-width:0.57px;"/>
        </g>
        <g transform="matrix(2.94327,0,0,2.94327,-1185.69,-5702.12)">
            <path d="M1075.35,2979.67L1075.35,2942.42L1075.35,2979.67ZM1092,2979.67L1092,2958.92C1092,2956.72 1091.51,2955.01 1090.53,2953.77C1089.54,2952.54 1088.09,2951.92 1086.15,2951.92C1085.05,2951.92 1084.01,2952.12 1083.03,2952.52C1082.04,2952.92 1081.11,2953.45 1080.23,2954.1C1079.34,2954.75 1078.5,2955.5 1077.7,2956.35C1076.9,2957.2 1076.12,2958.06 1075.35,2958.92" style="fill:none;fill-rule:nonzero;stroke:rgb(35,31,32);stroke-width:0.57px;"/>
        </g>
        <g transform="matrix(2.94327,0,0,2.94327,-1185.69,-5702.12)">
            <path d="M1105.75,2979.67L1105.75,2951.92L1105.75,2979.67ZM1105.8,2951.92L1105.7,2951.92L1105.8,2951.92ZM1105.75,2945.77L1105.75,2940.42L1105.75,2945.77ZM1105.8,2940.42L1105.7,2940.42L1105.8,2940.42Z" style="fill:none;fill-rule:nonzero;stroke:rgb(35,31,32);stroke-width:0.57px;"/>
        </g>
        <g transform="matrix(2.94327,0,0,2.94327,-1185.69,-5702.12)">
            <path d="M1120.55,2945.77L1120.55,2940.42L1120.55,2945.77ZM1120.6,2940.42L1120.5,2940.42L1120.6,2940.42ZM1112.75,2987.92C1113.12,2988.29 1113.6,2988.59 1114.2,2988.82C1114.8,2989.06 1115.52,2989.17 1116.35,2989.17C1117.95,2989.17 1119.07,2988.72 1119.7,2987.8C1120.34,2986.88 1120.65,2985.56 1120.65,2983.82L1120.65,2951.92" style="fill:none;fill-rule:nonzero;stroke:rgb(35,31,32);stroke-width:0.57px;"/>
        </g>
        <g transform="matrix(2.94327,0,0,2.94327,-1185.69,-5702.12)">
            <path d="M1134.4,2979.67L1134.4,2942.42L1134.4,2979.67ZM1148.3,2979.67L1134.4,2964.57L1147.2,2951.92" style="fill:none;fill-rule:nonzero;stroke:rgb(35,31,32);stroke-width:0.57px;"/>
        </g>
        <g transform="matrix(2.94327,0,0,2.94327,-1185.69,-5702.12)">
            <path d="M1166.4,2979.47C1166.24,2979.54 1166.02,2979.59 1165.75,2979.62C1165.49,2979.66 1165.18,2979.67 1164.85,2979.67C1161.99,2979.67 1160.55,2977.89 1160.55,2974.32L1160.55,2942.42" style="fill:none;fill-rule:nonzero;stroke:rgb(35,31,32);stroke-width:0.57px;"/>
        </g>
        <g transform="matrix(2.94327,0,0,2.94327,-1185.69,-5702.12)">
            <path d="M1176.15,2951.92L1176.15,2979.67L1176.15,2951.92ZM1192.8,2979.67L1192.8,2958.92C1192.8,2956.72 1192.31,2955.01 1191.33,2953.77C1190.34,2952.54 1188.88,2951.92 1186.95,2951.92C1185.85,2951.92 1184.81,2952.12 1183.83,2952.52C1182.84,2952.92 1181.91,2953.45 1181.03,2954.1C1180.14,2954.75 1179.3,2955.5 1178.5,2956.35C1177.7,2957.2 1176.92,2958.06 1176.15,2958.92M1209.45,2979.67L1209.45,2958.92C1209.45,2956.72 1208.96,2955.01 1207.98,2953.77C1206.99,2952.54 1205.54,2951.92 1203.6,2951.92C1202.5,2951.92 1201.46,2952.12 1200.48,2952.52C1199.49,2952.92 1198.56,2953.45 1197.68,2954.1C1196.79,2954.75 1195.95,2955.5 1195.15,2956.35C1194.35,2957.2 1193.57,2958.06 1192.8,2958.92" style="fill:none;fill-rule:nonzero;stroke:rgb(35,31,32);stroke-width:0.57px;"/>
        </g>
        <g transform="matrix(2.94327,0,0,2.94327,-1185.69,-5702.12)">
            <path d="M1223.2,2951.92L1223.2,2979.67L1223.2,2951.92ZM1239.85,2979.67L1239.85,2958.92C1239.85,2956.72 1239.36,2955.01 1238.38,2953.77C1237.39,2952.54 1235.93,2951.92 1234,2951.92C1232.9,2951.92 1231.86,2952.12 1230.88,2952.52C1229.89,2952.92 1228.96,2953.45 1228.08,2954.1C1227.19,2954.75 1226.35,2955.5 1225.55,2956.35C1224.75,2957.2 1223.97,2958.06 1223.2,2958.92" style="fill:none;fill-rule:nonzero;stroke:rgb(35,31,32);stroke-width:0.57px;"/>
        </g>
        <g transform="matrix(2.94327,0,0,2.94327,-1185.69,-5702.12)">
            <path d="M1261.35,2951.92C1259.32,2951.92 1257.63,2952.4 1256.3,2953.35C1254.97,2954.3 1253.92,2955.47 1253.15,2956.87C1252.38,2958.27 1251.85,2959.79 1251.55,2961.42C1251.25,2963.06 1251.1,2964.56 1251.1,2965.92C1251.1,2967.62 1251.3,2969.29 1251.7,2970.92C1252.1,2972.56 1252.72,2974.02 1253.55,2975.32C1254.38,2976.62 1255.45,2977.67 1256.75,2978.47C1258.05,2979.27 1259.6,2979.67 1261.4,2979.67C1263.2,2979.67 1264.75,2979.27 1266.05,2978.47C1267.35,2977.67 1268.42,2976.62 1269.25,2975.32C1270.09,2974.02 1270.7,2972.56 1271.1,2970.92C1271.5,2969.29 1271.7,2967.62 1271.7,2965.92C1271.7,2964.56 1271.55,2963.06 1271.25,2961.42C1270.95,2959.79 1270.42,2958.27 1269.65,2956.87C1268.88,2955.47 1267.84,2954.3 1266.53,2953.35C1265.21,2952.4 1263.52,2951.92 1261.45,2951.92L1261.35,2951.92Z" style="fill:none;fill-rule:nonzero;stroke:rgb(35,31,32);stroke-width:0.57px;"/>
        </g>
        <g transform="matrix(2.94327,0,0,2.94327,-1185.69,-5702.12)">
            <path d="M1283.2,2951.92L1283.2,2989.17L1283.2,2951.92ZM1283.2,2972.82C1284.27,2974.96 1285.61,2976.63 1287.23,2977.85C1288.84,2979.07 1290.72,2979.67 1292.85,2979.67C1294.55,2979.67 1296,2979.29 1297.2,2978.52C1298.4,2977.76 1299.38,2976.73 1300.15,2975.45C1300.92,2974.17 1301.48,2972.68 1301.83,2971C1302.18,2969.32 1302.35,2967.56 1302.35,2965.72C1302.35,2963.62 1302.14,2961.72 1301.73,2960.02C1301.31,2958.32 1300.7,2956.87 1299.9,2955.67C1299.1,2954.47 1298.12,2953.55 1296.95,2952.9C1295.79,2952.25 1294.43,2951.92 1292.9,2951.92C1291.07,2951.92 1289.34,2952.44 1287.7,2953.47C1286.07,2954.51 1284.57,2956.22 1283.2,2958.62L1283.2,2972.82Z" style="fill:none;fill-rule:nonzero;stroke:rgb(35,31,32);stroke-width:0.57px;"/>
        </g>
        <g transform="matrix(2.94327,0,0,2.94327,-1185.69,-5702.12)">
            <path d="M1330.5,2951.92L1330.5,2989.17L1330.5,2951.92ZM1330.5,2972.82C1329.43,2974.96 1328.09,2976.63 1326.48,2977.85C1324.86,2979.07 1322.99,2979.67 1320.85,2979.67C1319.15,2979.67 1317.7,2979.29 1316.5,2978.52C1315.3,2977.76 1314.32,2976.73 1313.55,2975.45C1312.79,2974.17 1312.23,2972.68 1311.88,2971C1311.53,2969.32 1311.35,2967.56 1311.35,2965.72C1311.35,2963.62 1311.56,2961.72 1311.98,2960.02C1312.39,2958.32 1313,2956.87 1313.8,2955.67C1314.6,2954.47 1315.59,2953.55 1316.75,2952.9C1317.92,2952.25 1319.27,2951.92 1320.8,2951.92C1322.63,2951.92 1324.37,2952.44 1326,2953.47C1327.63,2954.51 1329.13,2956.22 1330.5,2958.62L1330.5,2972.82Z" style="fill:none;fill-rule:nonzero;stroke:rgb(35,31,32);stroke-width:0.57px;"/>
        </g>
        <g transform="matrix(2.94327,0,0,2.94327,-1185.69,-5702.12)">
            <path d="M1344.5,2951.92L1344.5,2979.67L1344.5,2951.92ZM1344.5,2958.92C1346.3,2956.86 1348.02,2955.17 1349.65,2953.87C1351.29,2952.57 1352.87,2951.92 1354.4,2951.92" style="fill:none;fill-rule:nonzero;stroke:rgb(35,31,32);stroke-width:0.57px;"/>
        </g>
        <g transform="matrix(2.94327,0,0,2.94327,-1185.69,-5702.12)">
            <path d="M1360.7,2973.77C1361.3,2975.64 1362.42,2977.09 1364.05,2978.12C1365.68,2979.16 1367.57,2979.67 1369.7,2979.67C1370.7,2979.67 1371.7,2979.54 1372.7,2979.27C1373.7,2979.01 1374.59,2978.6 1375.38,2978.05C1376.16,2977.5 1376.79,2976.8 1377.28,2975.95C1377.76,2975.1 1378,2974.09 1378,2972.92C1378,2971.39 1377.6,2970.16 1376.8,2969.22C1376,2968.29 1374.99,2967.52 1373.78,2966.92C1372.56,2966.32 1371.24,2965.8 1369.83,2965.35C1368.41,2964.9 1367.09,2964.38 1365.88,2963.8C1364.66,2963.22 1363.65,2962.5 1362.85,2961.65C1362.05,2960.8 1361.65,2959.64 1361.65,2958.17C1361.65,2957.07 1361.89,2956.13 1362.38,2955.35C1362.86,2954.57 1363.48,2953.92 1364.23,2953.4C1364.98,2952.88 1365.81,2952.51 1366.73,2952.27C1367.64,2952.04 1368.55,2951.92 1369.45,2951.92C1371.22,2951.92 1372.75,2952.33 1374.05,2953.15C1375.35,2953.97 1376.32,2955.11 1376.95,2956.57" style="fill:none;fill-rule:nonzero;stroke:rgb(35,31,32);stroke-width:0.57px;"/>
        </g>
        <g transform="matrix(2.94327,0,0,2.94327,-1185.69,-5702.12)">
            <path d="M1398.6,2978.32C1398.13,2978.72 1397.57,2979.05 1396.9,2979.3C1396.24,2979.55 1395.47,2979.67 1394.6,2979.67C1393.04,2979.67 1391.84,2979.22 1391,2978.3C1390.17,2977.38 1389.75,2975.89 1389.75,2973.82L1389.75,2946.67M1384.75,2954.62L1397.9,2954.62L1384.75,2954.62Z" style="fill:none;fill-rule:nonzero;stroke:rgb(35,31,32);stroke-width:0.57px;"/>
        </g>
        <g transform="matrix(2.94327,0,0,2.94327,-1185.69,-5702.12)">
            <path d="M1424.75,2972.67C1424.25,2973.51 1423.65,2974.35 1422.95,2975.2C1422.25,2976.05 1421.48,2976.8 1420.63,2977.45C1419.78,2978.1 1418.85,2978.63 1417.85,2979.05C1416.85,2979.47 1415.8,2979.67 1414.7,2979.67C1412.77,2979.67 1411.23,2979.03 1410.08,2977.75C1408.93,2976.47 1408.35,2974.61 1408.35,2972.17L1408.35,2951.92M1424.75,2951.92L1424.75,2979.67L1424.75,2951.92Z" style="fill:none;fill-rule:nonzero;stroke:rgb(35,31,32);stroke-width:0.57px;"/>
        </g>
        <g transform="matrix(2.94327,0,0,2.94327,-1185.69,-5702.12)">
            <path d="M1434.75,2951.92L1445.2,2979.42L1445.4,2979.42L1455.7,2951.92" style="fill:none;fill-rule:nonzero;stroke:rgb(35,31,32);stroke-width:0.57px;"/>
        </g>
        <g transform="matrix(2.94327,0,0,2.94327,-1185.69,-5702.12)">
            <path d="M1462.2,2951.92L1470.55,2979.42L1470.75,2979.42L1479.1,2952.42L1479.3,2952.42L1487.9,2979.42L1488.1,2979.42L1496.05,2951.92" style="fill:none;fill-rule:nonzero;stroke:rgb(35,31,32);stroke-width:0.57px;"/>
        </g>
        <g transform="matrix(2.94327,0,0,2.94327,-1185.69,-5702.12)">
            <path d="M1503.05,2979.67L1522.45,2951.92L1503.05,2979.67ZM1523.05,2979.67L1504.3,2951.92L1523.05,2979.67Z" style="fill:none;fill-rule:nonzero;stroke:rgb(35,31,32);stroke-width:0.57px;"/>
        </g>
        <g transform="matrix(2.94327,0,0,2.94327,-1185.69,-5702.12)">
            <path d="M1540.6,2979.67L1530.05,2951.92L1540.6,2979.67ZM1531.55,2988.42C1532.35,2988.92 1533.18,2989.17 1534.05,2989.17C1535.52,2989.17 1536.71,2988.45 1537.63,2987C1538.54,2985.55 1539.47,2983.39 1540.4,2980.52L1551,2951.92" style="fill:none;fill-rule:nonzero;stroke:rgb(35,31,32);stroke-width:0.57px;"/>
        </g>
        <g transform="matrix(2.94327,0,0,2.94327,-1185.69,-5702.12)">
            <path d="M1588.25,2969.02L1606.6,2969.02L1588.25,2969.02ZM1610.8,2979.67L1597.6,2945.92L1597.4,2945.92L1584,2979.67" style="fill:none;fill-rule:nonzero;stroke:rgb(35,31,32);stroke-width:0.57px;"/>
        </g>
        <g transform="matrix(2.94327,0,0,2.94327,-1185.69,-5702.12)">
            <path d="M1621.3,2979.17L1629.4,2979.17C1631.57,2979.17 1633.39,2978.95 1634.88,2978.5C1636.36,2978.05 1637.55,2977.44 1638.45,2976.67C1639.35,2975.91 1640,2974.99 1640.4,2973.92C1640.8,2972.86 1641,2971.71 1641,2970.47C1641,2967.87 1640.13,2965.79 1638.38,2964.22C1636.63,2962.66 1633.77,2961.87 1629.8,2961.87L1621.3,2961.87L1621.3,2979.17ZM1630.8,2961.87C1632.04,2961.87 1633.2,2961.72 1634.3,2961.42C1635.4,2961.12 1636.38,2960.65 1637.23,2960C1638.08,2959.35 1638.75,2958.52 1639.25,2957.52C1639.75,2956.52 1640,2955.32 1640,2953.92C1640,2952.96 1639.84,2952.01 1639.53,2951.07C1639.21,2950.14 1638.65,2949.31 1637.85,2948.57C1637.05,2947.84 1635.97,2947.26 1634.6,2946.82C1633.24,2946.39 1631.49,2946.17 1629.35,2946.17L1621.3,2946.17L1621.3,2979.17" style="fill:none;fill-rule:nonzero;stroke:rgb(35,31,32);stroke-width:0.57px;"/>
        </g>
        <g transform="matrix(2.94327,0,0,2.94327,-1185.69,-5702.12)">
            <path d="M1674.3,2952.82C1672.43,2948.06 1668.97,2945.67 1663.9,2945.67C1661.77,2945.67 1659.88,2946.08 1658.25,2946.9C1656.62,2947.72 1655.24,2948.87 1654.13,2950.35C1653.01,2951.83 1652.17,2953.62 1651.6,2955.7C1651.04,2957.78 1650.75,2960.09 1650.75,2962.62C1650.75,2965.42 1651.09,2967.89 1651.75,2970.02C1652.42,2972.16 1653.34,2973.93 1654.53,2975.35C1655.71,2976.77 1657.1,2977.84 1658.7,2978.57C1660.3,2979.31 1662.04,2979.67 1663.9,2979.67C1665.37,2979.67 1666.7,2979.47 1667.9,2979.05C1669.1,2978.63 1670.17,2978.07 1671.1,2977.37C1672.04,2976.67 1672.84,2975.87 1673.5,2974.95C1674.17,2974.03 1674.67,2973.06 1675,2972.02" style="fill:none;fill-rule:nonzero;stroke:rgb(35,31,32);stroke-width:0.57px;"/>
        </g>
        <g transform="matrix(2.94327,0,0,2.94327,-1025.32,-5807.83)">
            <path d="M1522.01,3014.77L1504.01,3014.77L1504.01,3014.57L1521.26,2988.22L1521.26,2988.02L1504.16,2988.02" style="fill:none;fill-rule:nonzero;stroke:rgb(35,31,32);stroke-width:0.57px;"/>
        </g>
        <g transform="matrix(2.94327,0,0,2.94327,-1185.69,-5702.12)">
            <path d="M1686.25,2979.17L1686.25,2946.17L1693.6,2946.17C1696.07,2946.17 1698.29,2946.56 1700.28,2947.32C1702.26,2948.09 1703.95,2949.19 1705.35,2950.62C1706.75,2952.06 1707.82,2953.79 1708.55,2955.82C1709.29,2957.86 1709.65,2960.16 1709.65,2962.72C1709.65,2965.66 1709.16,2968.17 1708.18,2970.25C1707.19,2972.33 1705.9,2974.04 1704.3,2975.37C1702.7,2976.71 1700.86,2977.67 1698.78,2978.27C1696.69,2978.87 1694.52,2979.17 1692.25,2979.17L1686.25,2979.17Z" style="fill:none;fill-rule:nonzero;stroke:rgb(35,31,32);stroke-width:0.57px;"/>
        </g>
        <g transform="matrix(2.94327,0,0,2.94327,-1185.69,-5702.12)">
            <path d="M1738.95,2979.17L1720.9,2979.17L1720.9,2946.17L1738.95,2946.17M1720.9,2961.87L1738.1,2961.87L1720.9,2961.87Z" style="fill:none;fill-rule:nonzero;stroke:rgb(35,31,32);stroke-width:0.57px;"/>
        </g>
        <g transform="matrix(2.94327,0,0,2.94327,-1185.69,-5702.12)">
            <path d="M1749.95,2979.67L1749.95,2946.17L1767,2946.17M1749.95,2962.32L1766.15,2962.32L1749.95,2962.32Z" style="fill:none;fill-rule:nonzero;stroke:rgb(35,31,32);stroke-width:0.57px;"/>
        </g>
        <g transform="matrix(2.94327,0,0,2.94327,-1185.69,-5702.12)">
            <path d="M1798.05,2952.82C1796.18,2948.06 1792.72,2945.67 1787.65,2945.67C1785.62,2945.67 1783.79,2946.05 1782.18,2946.8C1780.56,2947.55 1779.18,2948.65 1778.05,2950.1C1776.92,2951.55 1776.04,2953.33 1775.43,2955.45C1774.81,2957.57 1774.5,2959.97 1774.5,2962.67C1774.5,2965.01 1774.74,2967.21 1775.23,2969.27C1775.71,2971.34 1776.49,2973.15 1777.55,2974.7C1778.62,2976.25 1780,2977.47 1781.7,2978.35C1783.4,2979.23 1785.47,2979.67 1787.9,2979.67C1789.9,2979.67 1791.73,2979.39 1793.38,2978.82C1795.03,2978.26 1796.49,2977.59 1797.75,2976.82L1797.75,2962.97L1788.9,2962.97" style="fill:none;fill-rule:nonzero;stroke:rgb(35,31,32);stroke-width:0.57px;"/>
        </g>
        <g transform="matrix(2.94327,0,0,2.94327,-1185.69,-5702.12)">
            <path d="M1810.55,2945.67L1810.55,2979.67L1810.55,2945.67ZM1810.55,2961.42L1831.85,2961.42L1810.55,2961.42ZM1831.85,2979.67L1831.85,2945.67L1831.85,2979.67Z" style="fill:none;fill-rule:nonzero;stroke:rgb(35,31,32);stroke-width:0.57px;"/>
        </g>
        <g transform="matrix(2.94327,0,0,2.94327,-1185.69,-5702.12)">
            <path d="M1845.85,2979.67L1845.85,2945.67L1845.85,2979.67ZM1845.9,2945.67L1845.8,2945.67L1845.9,2945.67Z" style="fill:none;fill-rule:nonzero;stroke:rgb(35,31,32);stroke-width:0.57px;"/>
        </g>
        <g transform="matrix(2.94327,0,0,2.94327,-1185.69,-5702.12)">
            <path d="M1855.35,2978.22C1855.92,2978.79 1856.55,2979.17 1857.25,2979.37C1857.95,2979.57 1858.62,2979.67 1859.25,2979.67C1859.95,2979.67 1860.62,2979.56 1861.25,2979.32C1861.88,2979.09 1862.43,2978.7 1862.9,2978.15C1863.37,2977.6 1863.74,2976.89 1864,2976.02C1864.27,2975.16 1864.4,2974.07 1864.4,2972.77L1864.4,2945.67" style="fill:none;fill-rule:nonzero;stroke:rgb(35,31,32);stroke-width:0.57px;"/>
        </g>
        <g transform="matrix(2.94327,0,0,2.94327,-1185.69,-5702.12)">
            <path d="M1877.9,2979.67L1877.9,2945.67L1877.9,2979.67ZM1897.25,2979.67L1880.45,2961.72L1896.05,2945.67" style="fill:none;fill-rule:nonzero;stroke:rgb(35,31,32);stroke-width:0.57px;"/>
        </g>
        <g transform="matrix(2.94327,0,0,2.94327,-1185.69,-5702.12)">
            <path d="M1922.65,2979.17L1906.75,2979.17L1906.75,2945.67" style="fill:none;fill-rule:nonzero;stroke:rgb(35,31,32);stroke-width:0.57px;"/>
        </g>
        <g transform="matrix(2.94327,0,0,2.94327,-1185.69,-5702.12)">
            <path d="M1960.25,2979.67L1960.25,2945.92L1960.05,2945.92L1945.8,2978.17L1945.6,2978.17L1931.35,2945.92L1931.15,2945.92L1931.15,2979.67" style="fill:none;fill-rule:nonzero;stroke:rgb(35,31,32);stroke-width:0.57px;"/>
        </g>
        <g transform="matrix(2.94327,0,0,2.94327,-1185.69,-5702.12)">
            <path d="M1974.25,2979.67L1974.25,2945.92L1974.45,2945.92L1997.05,2979.42L1997.25,2979.42L1997.2,2945.67" style="fill:none;fill-rule:nonzero;stroke:rgb(35,31,32);stroke-width:0.57px;"/>
        </g>
        <g transform="matrix(2.94327,0,0,2.94327,-1185.69,-5702.12)">
            <path d="M2022.1,2945.67C2019.74,2945.67 2017.73,2946.18 2016.08,2947.2C2014.43,2948.22 2013.08,2949.53 2012.03,2951.15C2010.98,2952.77 2010.21,2954.58 2009.73,2956.6C2009.24,2958.62 2009,2960.62 2009,2962.62C2009,2963.72 2009.09,2964.92 2009.25,2966.2C2009.42,2967.48 2009.69,2968.76 2010.08,2970.02C2010.46,2971.29 2010.98,2972.51 2011.63,2973.67C2012.28,2974.84 2013.09,2975.87 2014.05,2976.75C2015.02,2977.63 2016.17,2978.34 2017.5,2978.87C2018.84,2979.41 2020.38,2979.67 2022.15,2979.67C2023.92,2979.67 2025.47,2979.41 2026.8,2978.87C2028.13,2978.34 2029.29,2977.63 2030.25,2976.75C2031.22,2975.87 2032.03,2974.84 2032.68,2973.67C2033.33,2972.51 2033.84,2971.29 2034.23,2970.02C2034.61,2968.76 2034.88,2967.48 2035.05,2966.2C2035.22,2964.92 2035.3,2963.72 2035.3,2962.62C2035.3,2960.62 2035.06,2958.62 2034.58,2956.6C2034.09,2954.58 2033.33,2952.77 2032.28,2951.15C2031.23,2949.53 2029.88,2948.22 2028.23,2947.2C2026.58,2946.18 2024.57,2945.67 2022.2,2945.67L2022.1,2945.67Z" style="fill:none;fill-rule:nonzero;stroke:rgb(35,31,32);stroke-width:0.57px;"/>
        </g>
        <g transform="matrix(2.94327,0,0,2.94327,-1185.69,-5702.12)">
            <path d="M2047.05,2979.67L2047.05,2946.17L2055.9,2946.17C2057.67,2946.17 2059.2,2946.4 2060.5,2946.85C2061.8,2947.3 2062.89,2947.92 2063.75,2948.72C2064.62,2949.52 2065.26,2950.48 2065.68,2951.6C2066.09,2952.72 2066.3,2953.94 2066.3,2955.27C2066.3,2958.01 2065.43,2960.12 2063.68,2961.62C2061.93,2963.12 2059.28,2963.87 2055.75,2963.87L2047.05,2963.87L2047.05,2979.67Z" style="fill:none;fill-rule:nonzero;stroke:rgb(35,31,32);stroke-width:0.57px;"/>
        </g>
        <g transform="matrix(2.94327,0,0,2.94327,-1185.69,-5702.12)">
            <path d="M2099.5,2986.57L2090.95,2979.32L2099.5,2986.57ZM2087.4,2945.67C2085.03,2945.67 2083.03,2946.18 2081.38,2947.2C2079.73,2948.22 2078.38,2949.53 2077.33,2951.15C2076.28,2952.77 2075.51,2954.58 2075.03,2956.6C2074.54,2958.62 2074.3,2960.62 2074.3,2962.62C2074.3,2963.72 2074.39,2964.92 2074.55,2966.2C2074.72,2967.48 2074.99,2968.76 2075.38,2970.02C2075.76,2971.29 2076.28,2972.51 2076.93,2973.67C2077.58,2974.84 2078.39,2975.87 2079.35,2976.75C2080.32,2977.63 2081.47,2978.34 2082.8,2978.87C2084.14,2979.41 2085.68,2979.67 2087.45,2979.67C2089.22,2979.67 2090.77,2979.41 2092.1,2978.87C2093.43,2978.34 2094.59,2977.63 2095.55,2976.75C2096.52,2975.87 2097.33,2974.84 2097.98,2973.67C2098.63,2972.51 2099.14,2971.29 2099.53,2970.02C2099.91,2968.76 2100.18,2967.48 2100.35,2966.2C2100.52,2964.92 2100.6,2963.72 2100.6,2962.62C2100.6,2960.62 2100.36,2958.62 2099.88,2956.6C2099.39,2954.58 2098.63,2952.77 2097.58,2951.15C2096.53,2949.53 2095.18,2948.22 2093.53,2947.2C2091.88,2946.18 2089.87,2945.67 2087.5,2945.67L2087.4,2945.67Z" style="fill:none;fill-rule:nonzero;stroke:rgb(35,31,32);stroke-width:0.57px;"/>
        </g>
        <g transform="matrix(2.94327,0,0,2.94327,-1185.69,-5702.12)">
            <path d="M2112.35,2979.67L2112.35,2946.17L2121,2946.17C2122.67,2946.17 2124.11,2946.39 2125.33,2946.82C2126.54,2947.26 2127.54,2947.85 2128.33,2948.6C2129.11,2949.35 2129.69,2950.22 2130.08,2951.2C2130.46,2952.18 2130.65,2953.22 2130.65,2954.32C2130.65,2955.62 2130.41,2956.77 2129.93,2957.77C2129.44,2958.77 2128.79,2959.62 2127.98,2960.32C2127.16,2961.02 2126.2,2961.56 2125.1,2961.92C2124,2962.29 2122.84,2962.47 2121.6,2962.47L2112.35,2962.47L2112.35,2979.67ZM2131.3,2979.67L2122.5,2962.47L2131.3,2979.67Z" style="fill:none;fill-rule:nonzero;stroke:rgb(35,31,32);stroke-width:0.57px;"/>
        </g>
        <g transform="matrix(2.94327,0,0,2.94327,-1185.69,-5702.12)">
            <path d="M2140.3,2974.22C2141,2975.89 2142.18,2977.22 2143.85,2978.2C2145.52,2979.18 2147.5,2979.67 2149.8,2979.67C2151.3,2979.67 2152.64,2979.46 2153.8,2979.02C2154.97,2978.59 2155.97,2978.01 2156.8,2977.27C2157.64,2976.54 2158.27,2975.67 2158.7,2974.67C2159.14,2973.67 2159.35,2972.62 2159.35,2971.52C2159.35,2969.86 2158.9,2968.47 2158,2967.37C2157.1,2966.27 2155.97,2965.32 2154.6,2964.5C2153.24,2963.68 2151.76,2962.94 2150.18,2962.27C2148.59,2961.61 2147.12,2960.88 2145.75,2960.1C2144.39,2959.32 2143.25,2958.4 2142.35,2957.35C2141.45,2956.3 2141,2954.97 2141,2953.37C2141,2952.37 2141.19,2951.42 2141.58,2950.5C2141.96,2949.58 2142.53,2948.77 2143.3,2948.05C2144.07,2947.33 2145.03,2946.76 2146.18,2946.32C2147.33,2945.89 2148.67,2945.67 2150.2,2945.67C2152.37,2945.67 2154.12,2946.1 2155.45,2946.95C2156.78,2947.8 2157.75,2948.87 2158.35,2950.17" style="fill:none;fill-rule:nonzero;stroke:rgb(35,31,32);stroke-width:0.57px;"/>
        </g>
        <g transform="matrix(2.94327,0,0,2.94327,-1185.69,-5702.12)">
            <path d="M2175.6,2979.67L2175.6,2946.17L2175.6,2979.67ZM2164.6,2946.17L2186.6,2946.17L2164.6,2946.17Z" style="fill:none;fill-rule:nonzero;stroke:rgb(35,31,32);stroke-width:0.57px;"/>
        </g>
        <g transform="matrix(2.94327,0,0,2.94327,-1185.69,-5702.12)">
            <path d="M2194.9,2945.67L2194.9,2967.42C2194.9,2969.39 2195.17,2971.14 2195.7,2972.67C2196.24,2974.21 2196.98,2975.49 2197.93,2976.52C2198.88,2977.56 2200.02,2978.34 2201.35,2978.87C2202.68,2979.41 2204.15,2979.67 2205.75,2979.67C2209.15,2979.67 2211.81,2978.62 2213.73,2976.52C2215.64,2974.42 2216.6,2971.39 2216.6,2967.42L2216.6,2945.67" style="fill:none;fill-rule:nonzero;stroke:rgb(35,31,32);stroke-width:0.57px;"/>
        </g>
        <g transform="matrix(2.94327,0,0,2.94327,-1185.69,-5702.12)">
            <path d="M2226.6,2945.67L2239.05,2979.42L2239.25,2979.42L2251.65,2945.67" style="fill:none;fill-rule:nonzero;stroke:rgb(35,31,32);stroke-width:0.57px;"/>
        </g>
        <g transform="matrix(2.94327,0,0,2.94327,-1185.69,-5702.12)">
            <path d="M2259.15,2945.67L2267.9,2979.42L2268.1,2979.42L2277.65,2946.17L2277.85,2946.17L2287.4,2979.42L2287.6,2979.42L2296.65,2945.67" style="fill:none;fill-rule:nonzero;stroke:rgb(35,31,32);stroke-width:0.57px;"/>
        </g>
        <g transform="matrix(2.94327,0,0,2.94327,-1185.69,-5702.12)">
            <path d="M2304.15,2979.67L2326.45,2945.67L2304.15,2979.67ZM2327.5,2979.67L2305.3,2945.67L2327.5,2979.67Z" style="fill:none;fill-rule:nonzero;stroke:rgb(35,31,32);stroke-width:0.57px;"/>
        </g>
        <g transform="matrix(2.94327,0,0,2.94327,-1185.69,-5702.12)">
            <path d="M2344.85,2979.67L2344.85,2964.87L2344.85,2979.67ZM2333.1,2945.67L2344.85,2964.87L2356.85,2945.67" style="fill:none;fill-rule:nonzero;stroke:rgb(35,31,32);stroke-width:0.57px;"/>
        </g>
        <g transform="matrix(2.94327,0,0,2.94327,-1185.69,-5702.12)">
            <path d="M2398.4,2970.67L2398.4,2945.67L2398.4,2970.67ZM2398.3,2976.07C2397.74,2976.07 2397.26,2976.27 2396.88,2976.67C2396.49,2977.07 2396.3,2977.56 2396.3,2978.12C2396.3,2978.69 2396.5,2979.17 2396.9,2979.57C2397.3,2979.97 2397.78,2980.17 2398.35,2980.17C2398.92,2980.17 2399.39,2979.97 2399.78,2979.57C2400.16,2979.17 2400.35,2978.69 2400.35,2978.12C2400.35,2977.56 2400.17,2977.07 2399.8,2976.67C2399.43,2976.27 2398.97,2976.07 2398.4,2976.07L2398.3,2976.07Z" style="fill:none;fill-rule:nonzero;stroke:rgb(35,31,32);stroke-width:0.57px;"/>
        </g>
        <g transform="matrix(2.94327,0,0,2.94327,-1185.69,-5702.12)">
            <path d="M2433.75,2971.12C2432.78,2972.39 2431.71,2973.45 2430.53,2974.3C2429.34,2975.15 2428,2975.57 2426.5,2975.57C2425.67,2975.57 2424.95,2975.44 2424.35,2975.17C2423.75,2974.91 2423.25,2974.55 2422.85,2974.1C2422.45,2973.65 2422.16,2973.12 2421.98,2972.5C2421.79,2971.88 2421.7,2971.24 2421.7,2970.57C2421.7,2968.61 2422.49,2967.17 2424.08,2966.25C2425.66,2965.33 2428.18,2964.87 2431.65,2964.87L2433.75,2964.87L2433.75,2971.12ZM2422.5,2960.27C2423.1,2958.94 2423.85,2957.94 2424.75,2957.27C2425.65,2956.61 2426.82,2956.27 2428.25,2956.27C2429.28,2956.27 2430.15,2956.44 2430.85,2956.77C2431.55,2957.11 2432.12,2957.55 2432.55,2958.1C2432.99,2958.65 2433.29,2959.3 2433.48,2960.05C2433.66,2960.8 2433.75,2961.59 2433.75,2962.42L2433.75,2971.32C2433.75,2971.76 2433.81,2972.22 2433.93,2972.72C2434.04,2973.22 2434.25,2973.69 2434.55,2974.12C2434.85,2974.56 2435.25,2974.91 2435.75,2975.17C2436.25,2975.44 2436.87,2975.57 2437.6,2975.57C2438.64,2975.57 2439.61,2975.3 2440.53,2974.75C2441.44,2974.2 2442.25,2973.43 2442.95,2972.45C2443.65,2971.47 2444.2,2970.28 2444.6,2968.9C2445,2967.52 2445.2,2965.97 2445.2,2964.27C2445.2,2961.94 2444.79,2959.78 2443.98,2957.8C2443.16,2955.82 2442.03,2954.11 2440.6,2952.67C2439.17,2951.24 2437.48,2950.12 2435.53,2949.3C2433.58,2948.48 2431.47,2948.07 2429.2,2948.07C2426.84,2948.07 2424.59,2948.49 2422.45,2949.32C2420.32,2950.16 2418.45,2951.35 2416.85,2952.9C2415.25,2954.45 2413.98,2956.34 2413.03,2958.57C2412.08,2960.81 2411.6,2963.31 2411.6,2966.07C2411.6,2968.77 2412.03,2971.23 2412.9,2973.45C2413.77,2975.67 2414.99,2977.55 2416.58,2979.1C2418.16,2980.65 2420.06,2981.85 2422.28,2982.7C2424.49,2983.55 2426.95,2983.97 2429.65,2983.97C2431.49,2983.97 2433.12,2983.77 2434.55,2983.37C2435.99,2982.97 2437.28,2982.44 2438.45,2981.77" style="fill:none;fill-rule:nonzero;stroke:rgb(35,31,32);stroke-width:0.57px;"/>
        </g>
        <g transform="matrix(2.94327,0,0,2.94327,-1185.69,-5702.12)">
            <path d="M2452.95,2967.82L2476,2967.82L2452.95,2967.82ZM2457.95,2979.67L2462.65,2945.67L2457.95,2979.67ZM2467.7,2979.67L2472.4,2945.67L2467.7,2979.67ZM2454.45,2957.32L2477.5,2957.32L2454.45,2957.32Z" style="fill:none;fill-rule:nonzero;stroke:rgb(35,31,32);stroke-width:0.57px;"/>
        </g>
        <g transform="matrix(2.94327,0,0,2.94327,-1185.69,-5702.12)">
            <path d="M2495.15,2986.57L2495.15,2979.67L2495.15,2986.57ZM2495.15,2945.67L2495.15,2938.77L2495.15,2945.67ZM2485.25,2974.22C2485.95,2975.89 2487.14,2977.22 2488.8,2978.2C2490.47,2979.18 2492.45,2979.67 2494.75,2979.67C2496.25,2979.67 2497.59,2979.46 2498.75,2979.02C2499.92,2978.59 2500.92,2978.01 2501.75,2977.27C2502.59,2976.54 2503.22,2975.67 2503.65,2974.67C2504.09,2973.67 2504.3,2972.62 2504.3,2971.52C2504.3,2969.86 2503.85,2968.47 2502.95,2967.37C2502.05,2966.27 2500.92,2965.32 2499.55,2964.5C2498.18,2963.68 2496.71,2962.94 2495.13,2962.27C2493.54,2961.61 2492.07,2960.88 2490.7,2960.1C2489.34,2959.32 2488.2,2958.4 2487.3,2957.35C2486.4,2956.3 2485.95,2954.97 2485.95,2953.37C2485.95,2952.37 2486.14,2951.42 2486.53,2950.5C2486.91,2949.58 2487.49,2948.77 2488.25,2948.05C2489.02,2947.33 2489.98,2946.76 2491.13,2946.32C2492.28,2945.89 2493.62,2945.67 2495.15,2945.67C2497.32,2945.67 2499.07,2946.1 2500.4,2946.95C2501.74,2947.8 2502.7,2948.87 2503.3,2950.17" style="fill:none;fill-rule:nonzero;stroke:rgb(35,31,32);stroke-width:0.57px;"/>
        </g>
        <g transform="matrix(2.94327,0,0,2.94327,-1185.69,-5702.12)">
            <path d="M2517.8,2945.67C2516.87,2945.67 2516.06,2945.9 2515.38,2946.35C2514.69,2946.8 2514.13,2947.41 2513.68,2948.17C2513.23,2948.94 2512.89,2949.84 2512.65,2950.87C2512.42,2951.91 2512.3,2953.02 2512.3,2954.22C2512.3,2955.42 2512.42,2956.54 2512.65,2957.57C2512.89,2958.61 2513.23,2959.5 2513.68,2960.25C2514.13,2961 2514.7,2961.59 2515.4,2962.02C2516.1,2962.46 2516.92,2962.67 2517.85,2962.67C2518.78,2962.67 2519.59,2962.46 2520.28,2962.02C2520.96,2961.59 2521.53,2961 2521.98,2960.25C2522.43,2959.5 2522.77,2958.61 2523,2957.57C2523.24,2956.54 2523.35,2955.42 2523.35,2954.22C2523.35,2953.02 2523.24,2951.91 2523,2950.87C2522.77,2949.84 2522.43,2948.94 2521.98,2948.17C2521.53,2947.41 2520.96,2946.8 2520.28,2946.35C2519.59,2945.9 2518.8,2945.67 2517.9,2945.67L2517.8,2945.67ZM2535.6,2962.67C2534.67,2962.67 2533.86,2962.9 2533.18,2963.35C2532.49,2963.8 2531.93,2964.41 2531.48,2965.17C2531.03,2965.94 2530.68,2966.84 2530.45,2967.87C2530.22,2968.91 2530.1,2970.02 2530.1,2971.22C2530.1,2972.42 2530.22,2973.54 2530.45,2974.57C2530.68,2975.61 2531.03,2976.5 2531.48,2977.25C2531.93,2978 2532.5,2978.59 2533.2,2979.02C2533.9,2979.46 2534.72,2979.67 2535.65,2979.67C2536.59,2979.67 2537.39,2979.46 2538.08,2979.02C2538.76,2978.59 2539.33,2978 2539.78,2977.25C2540.23,2976.5 2540.57,2975.61 2540.8,2974.57C2541.03,2973.54 2541.15,2972.42 2541.15,2971.22C2541.15,2970.02 2541.03,2968.91 2540.8,2967.87C2540.57,2966.84 2540.23,2965.94 2539.78,2965.17C2539.33,2964.41 2538.76,2963.8 2538.08,2963.35C2537.39,2962.9 2536.6,2962.67 2535.7,2962.67L2535.6,2962.67ZM2517.7,2979.67L2535.55,2945.67L2517.7,2979.67Z" style="fill:none;fill-rule:nonzero;stroke:rgb(35,31,32);stroke-width:0.57px;"/>
        </g>
        <g transform="matrix(2.94327,0,0,2.94327,-1185.69,-5702.12)">
            <path d="M2563.55,2961.62L2555.7,2945.67L2555.5,2945.67L2547.65,2961.62" style="fill:none;fill-rule:nonzero;stroke:rgb(35,31,32);stroke-width:0.57px;"/>
        </g>
        <g transform="matrix(2.94327,0,0,2.94327,-1185.69,-5702.12)">
            <path d="M2596.8,2979.67L2581.1,2962.47C2580.67,2961.97 2580.09,2961.37 2579.35,2960.65C2578.62,2959.93 2577.9,2959.12 2577.2,2958.22C2576.5,2957.32 2575.9,2956.37 2575.4,2955.35C2574.9,2954.33 2574.65,2953.29 2574.65,2952.22C2574.65,2951.36 2574.84,2950.53 2575.2,2949.75C2575.57,2948.97 2576.09,2948.27 2576.75,2947.67C2577.42,2947.07 2578.21,2946.59 2579.13,2946.22C2580.04,2945.86 2581.03,2945.67 2582.1,2945.67C2583.2,2945.67 2584.18,2945.87 2585.05,2946.25C2585.92,2946.63 2586.65,2947.13 2587.25,2947.75C2587.85,2948.37 2588.32,2949.09 2588.65,2949.92C2588.99,2950.76 2589.15,2951.62 2589.15,2952.52C2589.15,2954.06 2588.72,2955.35 2587.85,2956.4C2586.99,2957.45 2585.9,2958.4 2584.6,2959.25C2583.3,2960.1 2581.89,2960.89 2580.35,2961.62C2578.82,2962.36 2577.4,2963.17 2576.1,2964.05C2574.8,2964.93 2573.72,2965.97 2572.85,2967.15C2571.99,2968.33 2571.55,2969.77 2571.55,2971.47C2571.55,2972.67 2571.78,2973.77 2572.25,2974.77C2572.72,2975.77 2573.37,2976.64 2574.2,2977.37C2575.03,2978.11 2576.03,2978.67 2577.2,2979.07C2578.37,2979.47 2579.67,2979.67 2581.1,2979.67C2583.4,2979.67 2585.48,2979.17 2587.33,2978.15C2589.18,2977.13 2590.75,2975.79 2592.05,2974.12C2593.35,2972.46 2594.35,2970.53 2595.05,2968.35C2595.75,2966.17 2596.1,2963.92 2596.1,2961.62" style="fill:none;fill-rule:nonzero;stroke:rgb(35,31,32);stroke-width:0.57px;"/>
        </g>
        <g transform="matrix(2.94327,0,0,2.94327,-1185.69,-5702.12)">
            <path d="M2616.4,2960.42L2611.6,2953.67L2606.8,2960.42M2603.8,2951.42L2611.6,2953.67L2619.4,2951.42M2611.6,2953.72L2611.6,2945.67L2611.6,2953.72Z" style="fill:none;fill-rule:nonzero;stroke:rgb(35,31,32);stroke-width:0.57px;"/>
        </g>
        <g transform="matrix(2.94327,0,0,2.94327,-1185.69,-5702.12)">
            <path d="M2633.9,2985.47C2633,2984.04 2632.16,2982.53 2631.38,2980.95C2630.59,2979.37 2629.91,2977.69 2629.33,2975.92C2628.74,2974.16 2628.28,2972.31 2627.93,2970.37C2627.58,2968.44 2627.4,2966.42 2627.4,2964.32C2627.4,2960.12 2627.95,2956.32 2629.05,2952.92C2630.15,2949.52 2631.77,2946.26 2633.9,2943.12" style="fill:none;fill-rule:nonzero;stroke:rgb(35,31,32);stroke-width:0.57px;"/>
        </g>
        <g transform="matrix(2.94327,0,0,2.94327,-1185.69,-5702.12)">
            <path d="M2640.9,2985.47C2641.8,2984.04 2642.64,2982.53 2643.43,2980.95C2644.21,2979.37 2644.89,2977.69 2645.48,2975.92C2646.06,2974.16 2646.53,2972.31 2646.88,2970.37C2647.23,2968.44 2647.4,2966.42 2647.4,2964.32C2647.4,2960.12 2646.85,2956.32 2645.75,2952.92C2644.65,2949.52 2643.04,2946.26 2640.9,2943.12" style="fill:none;fill-rule:nonzero;stroke:rgb(35,31,32);stroke-width:0.57px;"/>
        </g>
        <g transform="matrix(2.94327,0,0,2.94327,-1185.69,-5702.12)">
            <path d="M2716.45,2968.57L2698.75,2968.57L2716.45,2968.57ZM2716.45,2958.57L2698.75,2958.57L2716.45,2958.57Z" style="fill:none;fill-rule:nonzero;stroke:rgb(35,31,32);stroke-width:0.57px;"/>
        </g>
        <g transform="matrix(2.94327,0,0,2.94327,-1185.69,-5702.12)">
            <path d="M2737.25,2974.92L2737.25,2951.67L2737.25,2974.92ZM2725.7,2963.07L2748.95,2963.07L2725.7,2963.07Z" style="fill:none;fill-rule:nonzero;stroke:rgb(35,31,32);stroke-width:0.57px;"/>
        </g>
        <g transform="matrix(2.94327,0,0,2.94327,-1185.69,-5702.12)">
            <path d="M2764.45,2985.47L2758.2,2985.47L2758.2,2943.12L2764.45,2943.12" style="fill:none;fill-rule:nonzero;stroke:rgb(35,31,32);stroke-width:0.57px;"/>
        </g>
        <g transform="matrix(2.94327,0,0,2.94327,-1185.69,-5702.12)">
            <path d="M2771.45,2985.47L2777.7,2985.47L2777.7,2943.12L2771.45,2943.12" style="fill:none;fill-rule:nonzero;stroke:rgb(35,31,32);stroke-width:0.57px;"/>
        </g>
        <g transform="matrix(2.94327,0,0,2.94327,-1185.69,-5702.12)">
            <path d="M2799.25,2985.87L2797.65,2985.87C2796.99,2985.87 2796.36,2985.79 2795.78,2985.62C2795.19,2985.46 2794.7,2985.18 2794.3,2984.8C2793.9,2984.42 2793.6,2983.91 2793.4,2983.27C2793.2,2982.64 2793.12,2981.86 2793.15,2980.92L2793.65,2972.62C2793.72,2971.46 2793.64,2970.51 2793.43,2969.77C2793.21,2969.04 2792.88,2968.47 2792.43,2968.07C2791.98,2967.67 2791.42,2967.4 2790.75,2967.25C2790.09,2967.1 2789.34,2967.02 2788.5,2967.02L2787.7,2967.02L2787.7,2962.82L2788.5,2962.82C2789.34,2962.82 2790.09,2962.75 2790.75,2962.6C2791.42,2962.45 2791.98,2962.17 2792.43,2961.77C2792.88,2961.37 2793.21,2960.81 2793.43,2960.07C2793.64,2959.34 2793.72,2958.39 2793.65,2957.22L2793.15,2948.92C2793.12,2947.99 2793.2,2947.21 2793.4,2946.57C2793.6,2945.94 2793.9,2945.43 2794.3,2945.05C2794.7,2944.67 2795.19,2944.39 2795.78,2944.22C2796.36,2944.06 2796.99,2943.97 2797.65,2943.97L2799.25,2943.97" style="fill:none;fill-rule:nonzero;stroke:rgb(35,31,32);stroke-width:0.57px;"/>
        </g>
        <g transform="matrix(2.94327,0,0,2.94327,-1185.69,-5702.12)">
            <path d="M2804.25,2985.87L2805.85,2985.87C2806.52,2985.87 2807.14,2985.79 2807.73,2985.62C2808.31,2985.46 2808.8,2985.18 2809.2,2984.8C2809.6,2984.42 2809.9,2983.91 2810.1,2983.27C2810.3,2982.64 2810.39,2981.86 2810.35,2980.92L2809.85,2972.62C2809.79,2971.46 2809.86,2970.51 2810.08,2969.77C2810.29,2969.04 2810.63,2968.47 2811.08,2968.07C2811.53,2967.67 2812.09,2967.4 2812.75,2967.25C2813.42,2967.1 2814.17,2967.02 2815,2967.02L2815.8,2967.02L2815.8,2962.82L2815,2962.82C2814.17,2962.82 2813.42,2962.75 2812.75,2962.6C2812.09,2962.45 2811.53,2962.17 2811.08,2961.77C2810.63,2961.37 2810.29,2960.81 2810.08,2960.07C2809.86,2959.34 2809.79,2958.39 2809.85,2957.22L2810.35,2948.92C2810.39,2947.99 2810.3,2947.21 2810.1,2946.57C2809.9,2945.94 2809.6,2945.43 2809.2,2945.05C2808.8,2944.67 2808.31,2944.39 2807.73,2944.22C2807.14,2944.06 2806.52,2943.97 2805.85,2943.97L2804.25,2943.97" style="fill:none;fill-rule:nonzero;stroke:rgb(35,31,32);stroke-width:0.57px;"/>
        </g>
        <g transform="matrix(2.94327,0,0,2.94327,-1185.69,-5702.12)">
            <path d="M2827.8,2989.17L2827.8,2942.42L2827.8,2989.17ZM2827.85,2942.42L2827.75,2942.42L2827.85,2942.42Z" style="fill:none;fill-rule:nonzero;stroke:rgb(35,31,32);stroke-width:0.57px;"/>
        </g>
        <g transform="matrix(2.94327,0,0,2.94327,-1185.69,-5702.12)">
            <path d="M2873,2980.17L2857.65,2945.17L2873,2980.17Z" style="fill:none;fill-rule:nonzero;stroke:rgb(35,31,32);stroke-width:0.57px;"/>
        </g>
        <g transform="matrix(2.94327,0,0,2.94327,-1185.69,-5702.12)">
            <path d="M2883.65,2952.92C2883.09,2952.92 2882.61,2953.12 2882.23,2953.52C2881.84,2953.92 2881.65,2954.41 2881.65,2954.97C2881.65,2955.54 2881.85,2956.02 2882.25,2956.42C2882.65,2956.82 2883.14,2957.02 2883.7,2957.02C2884.27,2957.02 2884.74,2956.82 2885.13,2956.42C2885.51,2956.02 2885.7,2955.54 2885.7,2954.97C2885.7,2954.41 2885.52,2953.92 2885.15,2953.52C2884.78,2953.12 2884.32,2952.92 2883.75,2952.92L2883.65,2952.92ZM2881,2986.77L2884.9,2979.02L2884.9,2976.32L2882.2,2976.32" style="fill:none;fill-rule:nonzero;stroke:rgb(35,31,32);stroke-width:0.57px;"/>
        </g>
        <g transform="matrix(2.94327,0,0,2.94327,-1185.69,-5702.12)">
            <path d="M2897.7,2976.07C2897.14,2976.07 2896.66,2976.27 2896.28,2976.67C2895.89,2977.07 2895.7,2977.56 2895.7,2978.12C2895.7,2978.69 2895.9,2979.17 2896.3,2979.57C2896.7,2979.97 2897.18,2980.17 2897.75,2980.17C2898.32,2980.17 2898.79,2979.97 2899.18,2979.57C2899.56,2979.17 2899.75,2978.69 2899.75,2978.12C2899.75,2977.56 2899.57,2977.07 2899.2,2976.67C2898.84,2976.27 2898.37,2976.07 2897.8,2976.07L2897.7,2976.07ZM2897.7,2952.92C2897.14,2952.92 2896.66,2953.12 2896.28,2953.52C2895.89,2953.92 2895.7,2954.41 2895.7,2954.97C2895.7,2955.54 2895.9,2956.02 2896.3,2956.42C2896.7,2956.82 2897.18,2957.02 2897.75,2957.02C2898.32,2957.02 2898.79,2956.82 2899.18,2956.42C2899.56,2956.02 2899.75,2955.54 2899.75,2954.97C2899.75,2954.41 2899.57,2953.92 2899.2,2953.52C2898.84,2953.12 2898.37,2952.92 2897.8,2952.92L2897.7,2952.92Z" style="fill:none;fill-rule:nonzero;stroke:rgb(35,31,32);stroke-width:0.57px;"/>
        </g>
        <g transform="matrix(2.94327,0,0,2.94327,-1185.69,-5702.12)">
            <path d="M2909.25,2952.87L2913.15,2945.12L2913.15,2942.42L2910.45,2942.42" style="fill:none;fill-rule:nonzero;stroke:rgb(35,31,32);stroke-width:0.57px;"/>
        </g>
        <g transform="matrix(2.94327,0,0,2.94327,-1185.69,-5702.12)">
            <path d="M2920.15,2952.87L2924.05,2945.12L2924.05,2942.42L2921.35,2942.42M2928.9,2952.87L2932.8,2945.12L2932.8,2942.42L2930.1,2942.42" style="fill:none;fill-rule:nonzero;stroke:rgb(35,31,32);stroke-width:0.57px;"/>
        </g>
        <g transform="matrix(2.94327,0,0,2.94327,-1185.69,-5702.12)">
            <path d="M2940.3,2986.77L2944.2,2979.02L2944.2,2976.32L2941.5,2976.32" style="fill:none;fill-rule:nonzero;stroke:rgb(35,31,32);stroke-width:0.57px;"/>
        </g>
        <g transform="matrix(2.94327,0,0,2.94327,-1185.69,-5702.12)">
            <path d="M2976.3,2977.17L2953.7,2965.47L2953.7,2965.27L2976.3,2953.57" style="fill:none;fill-rule:nonzero;stroke:rgb(35,31,32);stroke-width:0.57px;"/>
        </g>
        <g transform="matrix(2.94327,0,0,2.94327,-1185.69,-5702.12)">
            <path d="M2988.8,2976.07C2988.24,2976.07 2987.76,2976.27 2987.38,2976.67C2986.99,2977.07 2986.8,2977.56 2986.8,2978.12C2986.8,2978.69 2987,2979.17 2987.4,2979.57C2987.8,2979.97 2988.28,2980.17 2988.85,2980.17C2989.42,2980.17 2989.89,2979.97 2990.28,2979.57C2990.66,2979.17 2990.85,2978.69 2990.85,2978.12C2990.85,2977.56 2990.67,2977.07 2990.3,2976.67C2989.93,2976.27 2989.47,2976.07 2988.9,2976.07L2988.8,2976.07Z" style="fill:none;fill-rule:nonzero;stroke:rgb(35,31,32);stroke-width:0.57px;"/>
        </g>
        <g transform="matrix(2.94327,0,0,2.94327,-1185.69,-5702.12)">
            <path d="M3001.35,2977.17L3023.95,2965.47L3023.95,2965.27L3001.35,2953.57" style="fill:none;fill-rule:nonzero;stroke:rgb(35,31,32);stroke-width:0.57px;"/>
        </g>
        <g transform="matrix(2.94327,0,0,2.94327,-1185.69,-5702.12)">
            <path d="M3031.45,2980.17L3046.8,2945.17L3031.45,2980.17Z" style="fill:none;fill-rule:nonzero;stroke:rgb(35,31,32);stroke-width:0.57px;"/>
        </g>
        <g transform="matrix(2.94327,0,0,2.94327,-1185.69,-5702.12)">
            <path d="M3060.55,2970.67L3060.55,2967.57C3060.55,2966.94 3060.61,2966.36 3060.73,2965.82C3060.84,2965.29 3061.05,2964.76 3061.35,2964.22C3061.65,2963.69 3062.05,2963.15 3062.55,2962.6C3063.05,2962.05 3063.67,2961.46 3064.4,2960.82C3065.4,2959.96 3066.33,2958.87 3067.18,2957.57C3068.03,2956.27 3068.45,2954.74 3068.45,2952.97C3068.45,2951.94 3068.28,2950.97 3067.93,2950.07C3067.58,2949.17 3067.08,2948.4 3066.43,2947.75C3065.78,2947.1 3064.98,2946.59 3064.03,2946.22C3063.08,2945.86 3062,2945.67 3060.8,2945.67C3059.97,2945.67 3059.14,2945.77 3058.33,2945.97C3057.51,2946.17 3056.75,2946.48 3056.05,2946.9C3055.35,2947.32 3054.72,2947.86 3054.15,2948.52C3053.59,2949.19 3053.14,2949.99 3052.8,2950.92M3060.75,2976.07C3060.18,2976.07 3059.71,2976.27 3059.33,2976.67C3058.94,2977.07 3058.75,2977.56 3058.75,2978.12C3058.75,2978.69 3058.95,2979.17 3059.35,2979.57C3059.75,2979.97 3060.24,2980.17 3060.8,2980.17C3061.37,2980.17 3061.84,2979.97 3062.23,2979.57C3062.61,2979.17 3062.8,2978.69 3062.8,2978.12C3062.8,2977.56 3062.62,2977.07 3062.25,2976.67C3061.89,2976.27 3061.42,2976.07 3060.85,2976.07L3060.75,2976.07Z" style="fill:none;fill-rule:nonzero;stroke:rgb(35,31,32);stroke-width:0.57px;"/>
        </g>
        <g transform="matrix(2.94327,0,0,2.94327,-1185.69,-5702.12)">
            <path d="M3078.95,2965.47C3079.85,2964.07 3080.82,2963.12 3081.85,2962.62C3082.89,2962.12 3083.9,2961.87 3084.9,2961.87C3085.84,2961.87 3086.7,2962.06 3087.5,2962.42C3088.3,2962.79 3089.1,2963.2 3089.9,2963.65C3090.7,2964.1 3091.53,2964.52 3092.4,2964.9C3093.27,2965.28 3094.24,2965.47 3095.3,2965.47C3096.3,2965.47 3097.31,2965.24 3098.33,2964.77C3099.34,2964.31 3100.3,2963.37 3101.2,2961.97" style="fill:none;fill-rule:nonzero;stroke:rgb(35,31,32);stroke-width:0.57px;"/>
        </g>
        <g transform="matrix(2.94327,0,0,2.94327,-1185.69,-5702.12)">
            <path d="M3113.85,2945.67C3113.09,2945.67 3112.36,2945.82 3111.68,2946.12C3110.99,2946.42 3110.39,2946.84 3109.88,2947.37C3109.36,2947.91 3108.95,2948.52 3108.65,2949.2C3108.35,2949.88 3108.2,2950.62 3108.2,2951.42C3108.2,2952.22 3108.35,2952.97 3108.65,2953.65C3108.95,2954.33 3109.36,2954.93 3109.88,2955.45C3110.39,2955.97 3111,2956.37 3111.7,2956.67C3112.4,2956.97 3113.14,2957.12 3113.9,2957.12C3114.7,2957.12 3115.44,2956.97 3116.13,2956.67C3116.81,2956.37 3117.42,2955.97 3117.95,2955.45C3118.49,2954.93 3118.9,2954.33 3119.2,2953.65C3119.5,2952.97 3119.65,2952.22 3119.65,2951.42C3119.65,2950.62 3119.5,2949.88 3119.2,2949.2C3118.9,2948.52 3118.49,2947.91 3117.98,2947.37C3117.46,2946.84 3116.86,2946.42 3116.18,2946.12C3115.49,2945.82 3114.75,2945.67 3113.95,2945.67L3113.85,2945.67Z" style="fill:none;fill-rule:nonzero;stroke:rgb(35,31,32);stroke-width:0.57px;"/>
        </g>
        <g transform="matrix(2.94327,0,0,2.94327,-1185.69,-5702.12)">
            <path d="M3149.25,2946.77L3142.5,2940.12L3149.25,2946.77Z" style="fill:none;fill-rule:nonzero;stroke:rgb(35,31,32);stroke-width:0.57px;"/>
        </g>
        <g transform="matrix(2.94327,0,0,2.94327,-1186.25,-5810.75)">
            <path d="M2385.04,3016.33L2365.14,3016.33L2365.14,3016.13L2384.49,2983.53L2384.49,2983.33L2365.09,2983.33" style="fill:none;fill-rule:nonzero;stroke:rgb(35,31,32);stroke-width:0.57px;"/>
        </g>
    </g>
</svg>
